<?xml version="1.0" standalone="no"?>
<!DOCTYPE svg PUBLIC "-//W3C//DTD SVG 20010904//EN"
 "http://www.w3.org/TR/2001/REC-SVG-20010904/DTD/svg10.dtd">
<svg version="1.0" xmlns="http://www.w3.org/2000/svg"
 width="800.000000pt" height="800.000000pt" viewBox="0 0 800.000000 800.000000"
 preserveAspectRatio="xMidYMid meet">
<metadata>
Created by potrace 1.14, written by Peter Selinger 2001-2017
</metadata>
<g transform="translate(0.000000,800.000000) scale(0.100000,-0.100000)"
fill="#000000" stroke="none">
<path d="M3572 7210 c-8 -13 -23 -20 -45 -21 -17 0 -41 -4 -52 -9 -18 -8 -18
-9 5 -9 14 -1 31 -5 38 -10 26 -16 -27 -20 -81 -7 -84 22 -117 26 -117 17 0
-5 6 -11 13 -14 6 -2 -10 -7 -38 -11 -70 -10 -206 -56 -212 -72 -2 -7 -28 -24
-56 -38 -29 -14 -62 -34 -74 -46 -12 -11 -26 -20 -31 -20 -5 0 -16 -9 -23 -20
-8 -12 -32 -27 -54 -35 -22 -8 -31 -14 -20 -15 16 0 11 -8 -24 -44 -37 -38
-48 -44 -75 -40 -27 5 -38 -2 -91 -53 -32 -32 -60 -62 -62 -68 -1 -5 -5 -20
-8 -32 -5 -15 -2 -22 10 -25 15 -2 10 -12 -24 -55 -26 -33 -46 -50 -55 -47 -8
3 -24 0 -36 -6 -15 -8 -20 -8 -16 -1 4 6 4 11 1 11 -13 0 -33 -28 -101 -135
-38 -62 -64 -115 -64 -133 0 -11 -7 -22 -15 -26 -8 -3 -12 -12 -9 -21 3 -8 1
-15 -5 -15 -6 0 -11 -7 -11 -15 0 -8 -5 -15 -11 -15 -5 0 -7 -4 -4 -10 3 -5 2
-10 -4 -10 -10 0 -37 -76 -33 -93 1 -4 -5 -21 -13 -38 -9 -16 -13 -34 -9 -40
4 -6 2 -14 -4 -18 -13 -8 -23 -69 -11 -76 4 -3 12 9 17 27 l9 33 8 -29 c5 -17
4 -31 -3 -35 -9 -6 -8 -78 2 -89 3 -3 12 1 21 8 18 15 18 15 5 -30 -14 -47
-15 -187 -1 -203 5 -7 8 -22 5 -33 -3 -10 -1 -30 4 -43 l8 -24 25 26 c13 15
33 38 44 52 24 30 45 32 45 4 0 -28 -18 -59 -34 -59 -22 0 -42 -30 -27 -39 8
-6 9 -15 2 -34 -8 -21 -7 -25 4 -21 8 3 11 13 8 22 -5 13 -3 15 7 5 10 -9 9
-18 -7 -45 -22 -37 -37 -108 -23 -108 5 0 12 10 16 22 12 40 92 155 106 155
13 0 13 -6 0 -48 -9 -27 -17 -47 -20 -45 -6 7 -42 -27 -42 -40 0 -6 -9 -21
-20 -34 -12 -13 -18 -30 -16 -37 3 -7 0 -13 -5 -13 -6 0 -9 -9 -6 -19 3 -14 1
-18 -9 -14 -8 3 -14 1 -14 -3 -1 -5 -7 -35 -15 -67 -11 -50 -11 -58 0 -53 18
7 13 -40 -10 -84 -24 -46 -12 -83 41 -126 46 -38 54 -58 28 -68 -8 -3 -12 -11
-8 -17 4 -7 3 -9 -4 -5 -19 12 -61 -12 -68 -40 -4 -16 -9 -21 -14 -14 -11 18
-29 -11 -39 -65 -10 -53 4 -122 40 -204 22 -50 97 -172 114 -183 17 -13 33 20
75 151 38 119 50 174 68 316 6 51 10 60 29 63 21 3 21 2 8 -50 -8 -29 -18 -96
-22 -148 -6 -61 -13 -94 -20 -93 -12 2 -43 -82 -43 -116 0 -12 5 -21 10 -21
13 0 -15 -56 -33 -67 -8 -4 -20 -30 -27 -58 -7 -27 -17 -54 -21 -60 -4 -5 -10
-28 -14 -50 -3 -22 -8 -51 -11 -65 -4 -20 -2 -22 6 -10 8 11 10 3 9 -35 -2
-27 1 -79 4 -115 4 -36 10 -92 12 -125 2 -33 21 -123 40 -200 20 -77 38 -148
40 -158 11 -49 41 -133 76 -213 10 -22 28 -65 39 -95 40 -101 175 -339 196
-346 6 -2 14 4 18 13 5 12 2 15 -9 10 -13 -4 -14 -2 -5 14 9 16 4 35 -25 95
-36 77 -56 103 -29 40 8 -19 12 -35 9 -35 -9 0 -45 82 -44 100 0 10 3 8 9 -5
6 -15 9 -16 9 -4 1 9 -2 18 -5 22 -4 3 -22 50 -40 104 -52 153 -73 209 -74
196 0 -23 -18 -14 -22 12 -4 20 -3 23 8 14 11 -9 11 -5 3 23 -23 71 -61 238
-80 348 -43 246 -48 284 -45 288 3 2 12 -10 21 -28 14 -28 20 -31 46 -25 l30
7 -15 -37 c-15 -34 -14 -39 11 -91 30 -63 70 -101 117 -109 24 -5 43 -19 67
-51 18 -24 37 -44 42 -44 5 0 -8 19 -29 42 l-38 43 27 9 c30 11 33 31 16 106
-16 72 -39 208 -49 293 -6 53 -16 88 -31 109 -14 19 -24 50 -26 82 -3 34 -1
46 5 37 7 -9 12 -10 16 -2 4 6 0 14 -8 17 -9 3 -16 13 -16 21 0 13 3 13 15 3
14 -11 14 -10 7 11 -5 13 -8 54 -8 91 1 36 -2 64 -6 62 -3 -2 -5 26 -3 63 1
38 3 68 4 68 1 0 4 13 6 30 2 16 9 31 15 33 5 2 8 7 5 12 -3 4 6 10 20 12 17
4 25 1 25 -9 0 -8 -4 -12 -9 -9 -5 4 -7 -3 -4 -15 4 -14 8 -17 13 -9 6 9 9 9
14 -1 3 -8 4 -4 2 9 -3 15 0 22 7 19 7 -2 11 -11 9 -20 -1 -8 2 -18 8 -22 5
-3 7 0 4 8 -10 26 14 28 40 4 17 -16 26 -35 26 -53 0 -21 -3 -25 -9 -15 -7 11
-11 10 -20 -7 -8 -16 -7 -21 6 -26 9 -4 19 -2 23 4 4 6 26 -43 49 -109 24 -67
47 -124 52 -127 16 -10 9 -24 -8 -17 -10 3 -15 3 -11 -1 3 -4 13 -8 21 -10 8
-1 28 -14 45 -28 17 -14 47 -32 67 -38 36 -12 44 -23 23 -36 -6 -4 -8 -3 -5 3
7 11 -25 27 -78 39 -27 7 -29 6 -16 -9 7 -9 18 -14 24 -10 6 4 7 1 2 -7 -4 -7
-2 -16 5 -20 11 -7 11 -14 0 -40 -12 -30 -12 -34 11 -51 13 -10 20 -19 15 -19
-5 0 -1 -9 8 -19 17 -18 17 -22 2 -43 -20 -28 -21 -54 -2 -65 9 -5 17 -29 19
-62 4 -46 2 -54 -14 -58 -11 -3 -19 -10 -19 -15 0 -6 7 -8 15 -4 8 3 15 1 15
-4 0 -6 -11 -10 -25 -10 -21 0 -25 -4 -21 -24 5 -25 -9 -36 -45 -36 -10 0 -19
-4 -19 -9 0 -4 11 -6 25 -3 31 5 33 -10 3 -23 -12 -6 -23 -20 -24 -31 -2 -12
-9 -34 -15 -50 -19 -45 -20 -103 -4 -151 20 -59 19 -80 -5 -86 -11 -3 -20 -1
-20 5 0 5 -4 6 -10 3 -5 -3 -15 5 -22 19 -6 14 -15 26 -20 26 -10 0 75 -165
119 -230 22 -33 35 -71 48 -140 19 -104 46 -292 47 -328 0 -17 4 -22 17 -18
13 5 13 4 -2 -8 -9 -7 -16 -20 -14 -27 2 -8 2 -10 -1 -6 -2 4 -10 0 -17 -10
-12 -15 -12 -12 -5 22 16 67 11 63 -30 -20 -22 -44 -49 -92 -61 -107 -20 -25
-21 -29 -7 -45 8 -10 18 -26 21 -35 4 -10 11 -18 16 -18 5 0 12 -8 15 -17 4
-10 -12 1 -36 24 -24 24 -47 43 -51 43 -18 0 -83 -57 -79 -69 3 -8 0 -11 -5
-8 -5 3 -10 0 -10 -7 0 -8 6 -12 14 -9 7 3 13 0 13 -6 0 -6 -5 -11 -11 -11 -5
0 -7 -4 -4 -10 3 -5 0 -7 -8 -4 -10 3 -21 -10 -36 -40 -11 -25 -21 -48 -21
-51 0 -3 -10 -16 -22 -31 -13 -14 -23 -31 -23 -37 0 -7 -10 -11 -21 -10 -14 1
-25 -6 -32 -21 -6 -13 -22 -26 -39 -29 -19 -4 -34 -17 -48 -43 -11 -21 -29
-47 -40 -58 -12 -12 -22 -25 -22 -31 -1 -5 -15 -13 -31 -16 -39 -8 -54 -18
-46 -32 4 -7 4 -9 -1 -5 -4 4 -13 4 -19 -2 -8 -6 -45 4 -105 26 -177 67 -346
68 -520 5 -111 -41 -228 -119 -267 -179 -16 -25 -16 -26 -1 -13 24 19 27 12
11 -24 -7 -16 -13 -25 -14 -20 0 6 -5 3 -10 -5 -8 -12 -10 -11 -10 8 0 21 -2
21 -56 -15 -46 -30 -53 -39 -41 -47 13 -8 11 -12 -11 -23 -21 -11 -27 -11 -34
-1 -5 9 -8 3 -8 -14 0 -29 -14 -38 -23 -15 -7 16 -27 -10 -27 -35 0 -22 13
-23 31 -2 7 9 22 20 34 25 11 6 29 15 40 22 83 51 116 68 155 83 47 16 129 21
139 7 6 -8 24 -11 76 -14 32 -1 120 -18 145 -27 8 -3 26 -7 39 -8 13 -2 27 -7
30 -11 13 -17 71 -53 86 -53 9 0 14 -4 10 -9 -3 -6 4 -15 15 -21 15 -8 20 -8
20 2 0 7 8 1 17 -12 10 -14 31 -36 48 -50 56 -46 100 -94 160 -175 16 -22 51
-65 77 -96 27 -30 48 -60 48 -65 0 -5 9 -15 20 -22 11 -7 20 -16 20 -21 0 -5
22 -43 50 -84 73 -109 123 -213 169 -352 36 -109 60 -222 69 -330 9 -103 -3
-310 -23 -395 -28 -117 -28 -110 -1 -110 15 0 25 7 29 20 3 14 14 20 31 20 20
0 32 9 48 35 28 48 35 37 9 -14 -28 -53 -27 -61 9 -61 23 0 30 4 30 20 0 13
-5 18 -15 14 -17 -7 -19 4 -6 25 5 7 14 10 20 7 6 -4 11 0 11 9 0 10 -5 13
-12 9 -8 -5 -9 0 -6 14 4 13 1 22 -5 22 -8 0 -7 4 1 12 7 7 12 15 12 18 0 9
-80 -1 -86 -11 -13 -21 -24 -6 -24 32 l0 41 34 -21 c18 -12 44 -21 58 -21 13
0 30 -6 37 -13 10 -10 11 -3 6 33 -4 24 -9 48 -12 53 -3 5 -5 35 -5 68 0 42
-4 59 -14 59 -7 0 -14 -14 -16 -33 -2 -19 -8 -31 -16 -29 -7 1 -15 -5 -18 -13
-10 -26 -25 -16 -18 11 5 19 4 25 -5 20 -20 -13 -12 10 13 33 14 13 26 38 28
57 l4 35 -24 -31 c-13 -16 -28 -30 -33 -30 -18 0 -9 55 11 67 10 7 24 22 30
33 9 17 8 19 -7 13 -10 -4 -23 -14 -29 -22 -10 -12 -13 -2 -19 50 -4 36 -5 74
-3 86 1 11 -3 27 -11 36 -10 13 -10 17 -1 17 9 0 11 10 6 33 -4 19 -3 27 3 19
12 -19 22 24 15 64 -8 51 -23 71 -50 66 -20 -4 -24 0 -24 21 0 14 8 31 18 36
14 9 13 10 -11 11 -24 0 -28 4 -25 23 2 14 11 23 26 25 12 2 22 6 22 10 0 10
-58 34 -68 28 -4 -2 -13 4 -20 15 -9 14 -9 19 -1 19 8 0 8 4 -1 15 -10 12 -7
15 14 21 13 3 30 3 35 -1 7 -3 8 0 5 9 -3 9 -9 14 -14 13 -4 -1 -16 9 -27 22
-22 26 -43 22 -43 -10 0 -10 -5 -19 -11 -19 -7 0 -9 10 -7 24 4 18 0 26 -16
32 -19 6 -19 7 7 11 24 4 26 6 12 20 -9 8 -22 12 -30 9 -9 -3 -15 0 -15 9 0 8
-4 15 -10 15 -5 0 -10 4 -10 9 0 13 103 2 112 -12 4 -7 5 -19 2 -27 -3 -8 5
-22 18 -31 21 -16 23 -16 35 -1 11 15 13 13 19 -15 3 -18 10 -33 14 -33 9 0 5
-64 -5 -80 -3 -5 -2 -10 3 -10 14 0 22 26 22 66 0 21 4 33 10 29 6 -3 10 3 10
14 0 12 7 21 15 21 10 0 15 -10 15 -30 0 -16 5 -30 10 -30 17 0 11 -17 -16
-50 -31 -36 -28 -42 15 -34 23 5 36 16 47 40 19 40 37 45 28 8 -5 -19 -4 -25
5 -20 6 4 11 13 11 21 0 7 7 16 16 19 10 4 14 12 10 22 -5 12 -1 14 16 8 17
-5 20 -3 15 10 -4 9 -2 16 3 16 5 0 7 7 3 16 -4 11 -8 12 -13 4 -6 -9 -13 -9
-30 0 -15 8 -40 10 -71 6 -31 -4 -49 -3 -49 4 0 5 -13 10 -29 10 -17 0 -33 5
-36 10 -3 6 -1 10 5 10 7 0 10 6 7 14 -7 18 72 12 112 -9 37 -19 47 -19 32 -2
-6 8 -8 16 -5 20 3 3 1 15 -6 26 -13 25 -3 27 22 4 10 -9 21 -13 24 -10 11 11
-40 63 -85 88 -25 13 -52 37 -60 52 -9 15 -27 34 -41 42 -84 48 -114 49 -89 4
12 -24 12 -24 -8 -6 -42 37 -133 72 -133 51 0 -3 5 -15 11 -26 9 -16 8 -23 -2
-29 -11 -7 -11 -9 2 -9 9 0 28 -18 43 -40 17 -25 21 -37 11 -34 -8 4 -15 9
-15 13 0 8 -73 31 -97 31 -14 0 -12 5 10 25 15 14 27 29 27 33 0 4 -14 25 -32
47 -28 35 -28 37 -5 16 15 -14 27 -20 27 -15 0 14 52 9 87 -9 52 -27 69 -22
64 20 -4 26 25 11 113 -61 102 -84 151 -133 190 -191 17 -26 26 -33 26 -22 0
11 5 15 11 11 6 -3 8 -17 4 -31 -5 -23 -4 -25 18 -19 15 3 29 1 36 -8 9 -11 6
-12 -14 -8 -14 2 -25 0 -25 -6 0 -13 74 -52 98 -52 18 0 72 -48 72 -63 0 -4
-9 -3 -19 3 -18 9 -19 7 -15 -28 2 -20 6 -48 9 -60 4 -15 2 -21 -5 -17 -5 3
-13 -1 -16 -9 -3 -9 -10 -14 -14 -11 -5 3 -11 1 -15 -5 -11 -17 -26 0 -16 18
6 11 5 20 -4 27 -11 8 -11 21 -2 63 12 57 5 73 -33 79 -22 3 -26 -7 -8 -25 14
-14 20 -42 9 -42 -4 0 -12 5 -19 12 -19 19 -14 -1 15 -70 25 -60 26 -89 1 -64
-19 19 -30 14 -18 -9 13 -24 68 -59 93 -59 10 0 25 -7 33 -15 9 -8 24 -15 34
-15 27 0 36 -20 11 -27 -11 -3 -18 -10 -15 -15 11 -18 -60 3 -86 26 -22 19
-23 19 -10 1 28 -40 55 -55 98 -55 23 0 42 -4 42 -10 0 -5 7 -10 15 -10 8 0
15 5 15 11 0 7 10 9 26 5 21 -6 25 -4 21 8 -8 21 16 21 33 1 7 -8 17 -12 23
-8 6 3 21 -7 35 -23 21 -24 22 -25 10 -4 -21 35 -76 70 -108 70 -16 0 -30 7
-33 14 -3 8 -22 18 -41 21 -52 10 -60 25 -52 98 5 48 3 68 -9 82 -20 28 -19
33 9 28 13 -3 39 -23 58 -46 18 -22 56 -67 85 -98 28 -32 64 -83 78 -113 15
-31 30 -54 35 -51 11 7 40 -40 40 -67 0 -14 3 -18 8 -12 5 9 10 9 19 -1 7 -7
8 -17 2 -26 -15 -24 -10 -35 30 -57 53 -30 57 -47 21 -84 -30 -29 -38 -48 -22
-48 5 0 17 9 27 20 12 14 25 18 42 14 19 -5 22 -3 16 12 -4 11 -3 15 4 11 15
-10 23 -56 8 -51 -6 3 -20 -5 -30 -16 -19 -21 -18 -21 3 -27 12 -3 22 -7 22
-10 0 -10 -46 -42 -60 -43 -21 0 -40 -20 -40 -42 0 -33 72 -53 84 -22 8 22 8
26 -4 19 -12 -7 -60 5 -60 15 0 5 15 6 34 3 38 -6 49 6 60 68 4 21 13 43 21
49 13 11 14 10 10 -3 -7 -16 27 -33 44 -23 5 4 17 3 27 -1 16 -6 16 -7 -1 -19
-17 -12 -17 -15 -3 -31 20 -23 31 -74 19 -93 -8 -12 -11 -11 -16 5 -4 11 -11
28 -16 37 -5 10 -9 26 -9 36 0 24 -28 62 -46 62 -17 0 -19 -61 -3 -92 10 -19
9 -20 -10 -15 -23 6 -26 -4 -11 -33 12 -23 59 -39 94 -33 18 4 31 1 37 -8 4
-7 11 -11 14 -7 8 8 -14 118 -27 134 -6 8 4 7 29 -2 21 -7 46 -13 56 -14 9 0
17 -5 17 -10 0 -9 -27 -7 -67 6 -16 4 -16 5 6 -41 10 -22 16 -46 13 -53 -3 -8
5 -23 19 -33 l24 -19 -29 0 c-21 0 -27 -4 -22 -15 6 -17 -11 -20 -34 -5 -9 6
-17 5 -22 -3 -5 -8 -20 -1 -47 21 -48 39 -54 28 -11 -18 29 -31 33 -32 95 -28
47 3 65 1 65 -8 0 -8 17 -14 43 -16 51 -4 52 -21 0 -28 -30 -4 -34 -7 -19 -13
10 -4 17 -10 14 -13 -3 -2 -38 7 -78 22 -39 14 -74 23 -76 21 -3 -3 15 -21 39
-41 l44 -36 105 0 104 0 11 28 12 27 -4 -27 c-3 -24 0 -28 21 -28 24 0 24 2
19 53 -4 37 -3 46 4 31 5 -12 15 -25 21 -29 6 -4 15 -18 20 -31 l10 -24 346 0
347 0 -64 57 c-151 136 -409 371 -475 432 -501 468 -897 811 -1358 1174 -34
26 -65 53 -71 59 -16 19 41 -19 70 -46 15 -14 31 -23 36 -20 5 3 12 -2 15 -10
8 -21 25 -10 18 12 -5 14 -4 14 4 2 6 -8 8 -18 6 -22 -12 -19 27 -18 51 0 15
12 32 19 39 16 7 -3 26 1 42 7 47 19 63 20 83 3 13 -12 40 -17 86 -18 57 -1
69 -4 84 -25 15 -19 24 -22 45 -17 16 4 25 3 22 -2 -10 -17 21 -33 48 -26 16
4 26 2 26 -5 0 -6 -6 -12 -12 -12 -7 -1 1 -4 17 -8 35 -8 45 -4 25 10 -11 8
-10 9 8 4 13 -4 22 -2 22 4 0 6 5 11 11 11 6 0 8 -9 4 -20 -5 -14 -2 -20 9
-20 9 0 16 4 16 9 0 11 93 1 101 -12 7 -9 41 -6 87 8 13 4 22 3 22 -3 0 -6 -8
-13 -17 -15 -10 -3 2 -5 26 -6 34 -1 42 -4 37 -16 -3 -9 0 -15 8 -15 8 0 21
-3 30 -6 9 -3 16 -1 16 5 0 6 -7 11 -15 11 -21 0 -19 20 3 21 13 0 12 2 -5 9
-24 10 -31 22 -11 17 8 -1 12 9 11 28 -2 42 -14 76 -24 69 -5 -3 -9 6 -9 20 0
17 -6 26 -16 26 -8 0 -12 5 -8 11 3 6 0 15 -7 20 -12 8 -11 11 4 20 12 7 17
23 17 54 0 33 4 45 15 45 8 0 15 7 15 16 0 11 6 14 20 9 12 -4 20 -2 20 6 0 8
11 10 35 6 21 -3 33 -2 30 4 -4 5 -13 9 -21 9 -23 0 -16 17 10 24 17 4 26 15
31 37 7 30 9 31 46 25 32 -5 41 -3 46 11 9 23 29 43 42 43 6 0 11 8 11 18 0
10 7 28 16 40 9 13 14 32 11 42 -3 12 0 17 8 13 8 -2 20 8 29 25 9 17 23 29
33 28 10 0 19 9 24 24 4 14 7 19 8 11 1 -9 5 -10 14 -3 6 5 21 12 32 15 l20 5
-20 1 c-11 1 -28 8 -38 15 -17 13 -17 15 -1 24 18 10 9 20 -27 27 -30 6 -32
10 -15 28 8 8 12 17 9 21 -4 3 -1 6 7 6 21 0 -7 27 -37 35 l-26 6 32 31 c20
19 28 35 23 42 -5 6 -10 30 -10 53 -2 45 -5 41 139 192 43 45 54 63 47 75 -6
11 -5 16 3 16 7 0 5 6 -6 13 -13 10 -16 21 -11 41 5 21 1 32 -21 54 -18 17
-28 38 -28 56 0 16 -6 31 -14 34 -10 3 -12 0 -8 -12 4 -10 3 -15 -3 -11 -6 3
-10 1 -10 -4 0 -6 -4 -11 -9 -11 -9 0 1 69 13 88 4 8 1 12 -10 12 -22 0 -13 9
15 15 11 2 31 11 43 19 l22 16 -31 11 c-18 6 -34 18 -36 27 -4 15 -5 15 -6 -1
0 -10 -5 -16 -10 -13 -5 3 -7 16 -4 29 5 17 3 20 -7 10 -7 -6 -19 -9 -26 -6
-24 9 3 41 58 69 28 14 56 31 62 38 27 28 65 97 76 137 14 49 70 109 104 110
13 0 37 21 64 55 42 53 72 69 72 39 0 -8 4 -15 8 -15 5 0 14 -10 21 -22 6 -13
20 -36 30 -53 11 -16 20 -37 20 -46 1 -17 21 -29 47 -29 15 0 48 33 50 50 1 6
3 13 4 18 2 4 4 12 5 17 1 6 4 17 7 25 11 30 32 106 35 129 2 13 11 37 18 52
20 38 22 124 4 146 -8 10 -21 30 -29 46 -7 15 -17 27 -21 27 -14 0 -51 94 -54
135 -1 22 -6 48 -10 58 -4 10 -5 40 -3 67 3 27 1 47 -4 44 -4 -3 -8 2 -8 11 0
9 5 13 10 10 6 -4 10 12 11 39 1 25 3 51 4 56 1 6 3 17 4 25 0 8 7 12 16 9 9
-4 15 0 15 10 0 19 -9 20 -44 6 -14 -5 -26 -6 -26 -1 0 4 39 18 88 31 103 27
200 64 262 100 39 23 49 36 74 98 16 39 33 69 37 67 4 -3 10 7 14 22 3 15 2
29 -5 33 -13 8 4 181 22 214 6 11 12 57 12 101 l1 80 -95 -2 c-52 -2 -133 -7
-180 -13 -200 -22 -217 -22 -224 -5 -3 10 -2 14 5 10 15 -10 61 4 53 16 -3 6
2 9 12 7 36 -6 29 66 -14 146 -3 5 0 6 6 2 28 -17 9 23 -23 50 -19 16 -35 36
-35 46 0 9 -7 24 -16 32 -8 9 -12 21 -8 27 4 7 3 10 -2 6 -5 -3 -19 10 -32 28
-18 29 -19 33 -4 28 9 -3 27 -17 40 -31 13 -15 22 -20 22 -12 0 11 3 11 12 2
17 -17 38 -15 38 3 0 8 5 15 10 15 6 0 10 -8 8 -17 -2 -11 3 -18 12 -18 21 0
43 -23 34 -36 -5 -8 -3 -9 6 -4 9 6 10 2 5 -15 -5 -16 -4 -20 4 -15 16 9 41
-13 41 -36 0 -11 7 -19 15 -19 8 0 15 -6 15 -13 0 -7 8 -22 18 -33 9 -10 23
-32 30 -48 7 -16 16 -26 19 -22 3 3 20 -3 38 -14 37 -23 48 -18 35 16 -10 24
-9 24 19 9 26 -13 29 -13 27 1 -2 13 -40 51 -104 105 -7 5 -10 15 -6 20 3 5 0
8 -7 7 -7 -2 -18 8 -25 20 -8 17 -13 20 -17 10 -3 -8 -6 -5 -7 7 0 11 -19 34
-40 50 -22 17 -52 40 -67 52 -16 13 -31 23 -34 23 -3 0 -11 11 -17 25 -6 14
-16 25 -22 25 -13 0 -101 72 -95 78 2 2 25 -12 51 -32 26 -20 49 -34 52 -31 6
5 -114 125 -124 125 -14 0 -104 85 -104 98 0 8 -6 12 -15 8 -8 -3 -18 1 -22 8
-5 7 -18 18 -31 25 -12 7 -20 16 -17 22 4 5 3 8 -2 7 -10 -4 -50 24 -117 82
-29 25 -62 51 -74 59 -20 14 -21 31 -1 31 6 0 8 -4 5 -8 -2 -4 4 -13 14 -20
13 -8 21 -8 26 -1 4 7 12 6 22 -4 10 -7 49 -32 87 -56 39 -23 81 -49 95 -58
l25 -17 -24 27 c-14 15 -19 27 -13 27 6 0 14 -4 17 -10 3 -5 11 -10 17 -10 6
0 3 9 -6 19 -10 11 -15 25 -11 30 3 6 1 11 -5 11 -6 0 -8 5 -5 10 10 16 40 12
69 -11 14 -11 30 -17 36 -14 6 4 9 1 8 -5 -2 -6 26 -29 61 -51 66 -40 111 -55
56 -19 -16 11 -36 20 -42 20 -7 0 -13 4 -13 9 0 6 16 3 35 -5 19 -8 35 -12 35
-10 0 10 -93 55 -103 49 -5 -3 -7 -1 -4 4 4 6 -16 22 -46 36 -29 13 -66 38
-82 54 -17 18 -46 33 -66 37 -21 4 -43 13 -50 22 -11 13 -9 14 16 8 44 -11 21
13 -26 28 -23 6 -43 18 -46 25 -3 7 -13 13 -23 13 -10 0 -27 8 -36 18 -17 16
-18 16 -11 0 4 -12 2 -18 -8 -18 -19 0 -28 17 -13 26 15 9 -15 22 -54 23 -15
1 -30 6 -34 13 -5 8 0 9 14 6 12 -4 22 -2 22 2 0 10 -24 18 -68 24 -19 2 -38
8 -43 13 -6 6 20 4 58 -3 37 -7 84 -16 103 -19 32 -5 33 -4 10 6 -14 6 -33 15
-42 20 -10 5 -39 9 -65 10 l-48 1 43 10 c23 5 42 13 42 19 0 15 32 10 51 -7
20 -18 99 -36 99 -23 0 4 -6 9 -12 11 -10 4 -10 10 -1 31 10 22 10 29 -3 39
-8 7 -21 19 -29 26 -20 18 -27 15 -15 -8 13 -24 5 -26 -17 -4 -14 13 -14 17
-2 25 20 13 30 11 44 -7 14 -20 64 -22 76 -3 5 9 25 13 58 12 28 -1 53 2 56 6
5 9 82 -14 103 -31 7 -6 15 -9 18 -6 6 6 -13 58 -21 58 -4 0 -3 -4 0 -10 10
-16 -1 -11 -16 7 -12 14 -12 16 0 9 9 -6 12 -5 9 5 -3 8 -11 14 -19 14 -9 0
-37 20 -65 44 -27 25 -37 37 -22 28 15 -9 32 -17 38 -17 13 0 19 -5 81 -59 45
-40 71 -54 52 -28 -5 6 -15 31 -23 54 -7 23 -24 52 -36 64 -27 26 -33 48 -7
28 15 -12 14 -9 -2 17 -18 28 -112 107 -140 117 -5 3 -8 7 -4 10 11 13 85 -17
118 -47 29 -27 32 -28 27 -9 -4 12 -2 24 4 28 5 3 10 0 11 -7 0 -7 4 -4 9 7 8
18 9 17 9 -8 1 -15 7 -42 15 -60 17 -38 116 -137 116 -114 0 8 -7 20 -15 27
-10 8 -13 21 -9 33 3 11 2 17 -3 14 -5 -3 -22 5 -39 18 -27 23 -28 24 -7 25
12 0 25 -4 28 -10 3 -5 11 -10 16 -10 13 0 -8 22 -36 38 -11 6 -14 12 -7 12
13 0 58 -26 80 -47 7 -7 21 -13 31 -13 9 0 46 -23 82 -51 l64 -51 -70 71 c-44
44 -75 69 -85 65 -8 -3 -11 -2 -8 2 9 8 -35 43 -84 68 -42 21 -53 42 -13 24
14 -6 25 -15 25 -20 0 -5 8 -7 18 -4 23 8 137 -60 214 -125 31 -27 60 -49 65
-49 4 1 -3 10 -17 21 -14 12 -50 44 -80 73 -31 28 -69 61 -85 74 -17 13 -22
21 -12 18 25 -8 21 -1 -10 20 -24 15 -26 15 -14 1 12 -15 11 -17 -3 -17 -15 0
-20 10 -17 35 0 9 -108 75 -123 75 -3 0 -6 -12 -6 -27 0 -14 -3 -23 -7 -20 -3
4 -6 20 -5 37 1 27 -7 35 -30 31 -13 -1 -103 66 -101 76 1 6 -14 14 -35 18
-31 6 -34 9 -17 15 17 7 17 9 3 9 -10 1 -49 16 -87 35 -37 18 -79 36 -92 39
-13 3 -49 15 -79 26 -30 11 -71 21 -90 21 -19 0 -60 7 -90 16 -153 42 -366 49
-432 13 -17 -8 -105 -5 -140 7 -9 3 -18 12 -20 20 -2 11 -6 10 -16 -6z m18
-40 c0 -5 -4 -10 -10 -10 -5 0 -10 5 -10 10 0 6 5 10 10 10 6 0 10 -4 10 -10z
m1114 -285 c4 -14 11 -25 16 -25 6 0 10 -4 10 -10 0 -21 -31 -9 -40 16 -12 32
-13 44 -1 44 5 0 12 -11 15 -25z m-34 -26 c0 -6 -4 -7 -10 -4 -5 3 -10 11 -10
16 0 6 5 7 10 4 6 -3 10 -11 10 -16z m140 -44 c0 -8 -4 -15 -10 -15 -5 0 -10
7 -10 15 0 8 5 15 10 15 6 0 10 -7 10 -15z m-2120 -44 c0 -5 -9 -19 -19 -32
-16 -20 -22 -22 -33 -11 -11 11 -9 16 12 32 27 21 40 25 40 11z m-233 -352
c-7 -17 -15 -29 -18 -27 -3 1 -27 -21 -52 -51 -47 -55 -85 -87 -93 -78 -3 2 5
17 18 33 13 16 34 50 48 76 13 26 27 43 30 37 4 -5 21 1 41 15 19 13 35 25 37
25 1 1 -4 -13 -11 -30z m2048 1 c-3 -5 -13 -10 -21 -10 -8 0 -12 5 -9 10 3 6
13 10 21 10 8 0 12 -4 9 -10z m-22 -34 c4 -10 1 -13 -8 -9 -8 3 -12 9 -9 14 7
12 11 11 17 -5z m-2162 -139 c-10 -9 -11 -8 -5 6 3 10 9 15 12 12 3 -3 0 -11
-7 -18z m1543 2 c47 -28 45 -32 -4 -11 -22 9 -40 20 -40 25 0 11 5 9 44 -14z
m95 -50 c12 -12 19 -24 15 -28 -4 -3 -9 0 -11 7 -3 6 -10 12 -18 12 -7 0 -18
7 -25 15 -20 24 12 19 39 -6z m596 -20 c5 -5 -5 -4 -23 2 -17 6 -32 13 -32 16
0 7 43 -8 55 -18z m-182 -81 c12 -6 28 -17 35 -25 7 -7 19 -13 26 -13 6 0 12
-9 12 -20 0 -16 -3 -17 -16 -7 -90 75 -104 91 -57 65z m-43 -45 c0 -7 -39 17
-46 28 -3 6 5 3 20 -6 14 -10 26 -19 26 -22z m155 -31 c0 -6 30 -33 68 -62 68
-52 93 -79 35 -39 -68 47 -109 82 -119 101 -9 16 -8 19 3 16 7 -3 13 -10 13
-16z m-2229 -119 c-10 -10 -19 5 -10 18 6 11 8 11 12 0 2 -7 1 -15 -2 -18z
m1122 -58 c3 -11 0 -15 -7 -11 -14 9 -14 3 1 -29 9 -21 9 -28 -1 -35 -10 -6
-9 -12 8 -29 11 -11 22 -30 22 -41 2 -36 27 -90 41 -90 4 0 8 -7 8 -16 0 -11
6 -14 20 -9 15 5 20 2 20 -14 0 -11 5 -23 10 -26 6 -4 8 -11 4 -16 -3 -5 -18
0 -34 11 -15 11 -41 20 -57 20 -20 0 -24 -3 -14 -9 7 -5 10 -14 7 -20 -4 -6
-2 -11 3 -11 6 0 11 -7 11 -16 0 -13 3 -14 14 -5 10 9 16 8 26 -4 7 -8 20 -15
29 -15 14 -1 14 -2 -1 -14 -10 -7 -15 -16 -11 -19 3 -4 2 -7 -4 -7 -6 0 -10
-8 -9 -17 0 -11 -6 -17 -16 -17 -10 1 -16 -2 -13 -6 6 -10 -51 -24 -64 -16 -5
4 -9 -7 -9 -24 1 -17 -3 -34 -7 -38 -4 -4 -5 3 -2 16 3 12 1 22 -4 22 -5 0 -9
8 -9 17 0 15 -2 14 -15 -3 -11 -14 -14 -15 -15 -4 0 10 -3 11 -8 4 -4 -6 -15
-13 -25 -17 -10 -4 -15 -11 -12 -17 3 -5 -2 -10 -12 -10 -10 0 -27 -6 -38 -14
-11 -7 -37 -16 -57 -20 -21 -4 -42 -14 -48 -24 -8 -15 -11 -15 -20 -2 -8 13
-10 13 -10 -2 0 -10 -4 -18 -9 -18 -18 0 -62 -48 -64 -70 -1 -16 -6 -20 -21
-16 -11 3 -26 0 -33 -6 -9 -7 -17 -7 -28 2 -23 19 -44 -14 -45 -67 0 -33 -4
-43 -20 -48 -11 -4 -18 -11 -15 -16 4 -5 0 -12 -9 -15 -8 -3 -12 -12 -9 -20 3
-8 0 -14 -6 -14 -6 0 -11 8 -11 18 0 14 -2 15 -10 2 -9 -14 -14 -7 -11 13 1 4
-6 10 -14 13 -8 4 -15 14 -15 24 0 10 -8 41 -17 70 -15 48 -16 53 0 61 9 5 14
16 11 24 -4 8 -10 12 -15 9 -5 -3 -9 4 -9 15 0 10 -3 26 -6 35 -3 9 -1 16 4
16 6 0 12 -8 14 -17 2 -10 4 27 5 81 2 68 7 102 15 108 7 4 9 8 4 8 -4 0 7 17
25 38 18 20 37 36 41 34 4 -1 8 2 8 8 0 6 -6 10 -12 10 -10 0 -9 3 1 9 9 6 10
11 2 15 -21 13 -11 26 14 20 20 -5 24 -3 19 10 -3 9 -1 16 5 16 7 0 9 9 5 25
-5 19 -2 25 10 25 9 0 16 5 16 11 0 7 12 9 30 7 21 -3 29 -1 26 7 -6 15 2 25
43 54 27 19 35 21 43 10 6 -10 7 -7 3 9 -5 18 -2 22 14 22 14 0 19 5 14 15 -5
14 3 15 60 9 59 -6 65 -5 71 14 8 25 48 38 44 14 -5 -29 31 -25 59 6 20 24 31
29 47 23 12 -5 23 -16 24 -26z m-218 -5 c0 -5 -6 -10 -14 -10 -8 0 -18 5 -21
10 -3 6 3 10 14 10 12 0 21 -4 21 -10z m1616 -77 c-8 -8 -36 5 -36 17 0 7 6 7
21 0 11 -7 18 -14 15 -17z m-1271 -123 c3 -5 1 -10 -4 -10 -6 0 -11 5 -11 10
0 6 2 10 4 10 3 0 8 -4 11 -10z m-1173 -42 c-8 -8 -9 -4 -5 13 4 13 8 18 11
10 2 -7 -1 -18 -6 -23z m2538 2 c0 -5 -4 -10 -10 -10 -5 0 -10 5 -10 10 0 6 5
10 10 10 6 0 10 -4 10 -10z m-2070 -84 c0 -11 -19 -15 -25 -6 -3 5 1 10 9 10
9 0 16 -2 16 -4z m702 -18 c-9 -9 -15 -9 -24 0 -9 9 -7 12 12 12 19 0 21 -3
12 -12z m942 -73 c8 -11 19 -16 30 -12 25 10 56 -14 56 -42 0 -23 1 -23 18 -8
20 19 62 23 62 7 0 -5 -4 -10 -9 -10 -5 0 -11 -9 -14 -20 -3 -14 -14 -20 -34
-21 -55 -3 -95 -7 -98 -11 -4 -4 -8 -30 -6 -52 1 -13 6 -17 21 -13 12 3 32 0
46 -7 l24 -13 -37 -37 c-21 -20 -44 -36 -51 -36 -7 0 -39 -26 -71 -59 -31 -32
-66 -61 -76 -64 -26 -8 -171 -37 -183 -37 -16 0 -20 36 -6 55 8 10 14 30 14
44 0 43 11 51 55 41 56 -13 55 -13 51 20 -2 17 -1 28 2 25 7 -7 45 73 48 100
1 11 -3 25 -8 32 -6 8 -2 13 11 18 12 3 21 12 22 18 0 7 1 28 2 47 1 23 7 35
17 36 31 2 35 5 20 14 -10 6 0 8 33 6 32 -2 52 -8 61 -21z m-144 -51 c0 -8 -4
-14 -10 -14 -5 0 -10 9 -10 21 0 11 5 17 10 14 6 -3 10 -13 10 -21z m-1020
-74 c0 -5 -9 -10 -21 -10 -11 0 -17 5 -14 10 3 6 13 10 21 10 8 0 14 -4 14
-10z m1600 -134 c0 -2 -7 -7 -16 -10 -8 -3 -12 -2 -9 4 6 10 25 14 25 6z
m-1935 -36 c3 -5 -1 -10 -10 -10 -9 0 -13 5 -10 10 3 6 8 10 10 10 2 0 7 -4
10 -10z m2350 -13 c49 -68 8 -424 -56 -493 -12 -13 -60 -37 -108 -55 -86 -31
-248 -65 -259 -55 -3 3 2 6 11 6 10 0 17 8 17 21 0 11 -4 17 -10 14 -5 -3 -10
-1 -10 5 0 8 9 10 24 6 26 -6 33 7 42 85 4 35 3 36 -23 31 -16 -2 -33 -8 -38
-13 -6 -4 -24 -8 -40 -7 -17 0 -34 -1 -40 -2 -5 -2 -18 0 -28 5 -9 4 -29 5
-42 3 -27 -6 -35 9 -10 18 21 9 19 24 -4 24 -11 0 -23 5 -26 10 -3 6 3 10 13
10 11 0 25 7 32 15 7 8 8 15 2 15 -5 0 -12 9 -15 21 -4 15 1 23 19 31 13 6 24
15 24 19 0 5 7 5 17 2 11 -4 14 -3 9 5 -4 7 7 26 28 46 20 18 36 38 36 45 0 6
5 11 10 11 6 0 10 -4 10 -10 0 -5 13 -10 30 -10 35 0 32 18 -12 65 -15 17 -28
33 -28 37 0 4 -7 14 -16 22 -8 9 -11 16 -5 16 15 0 66 -51 74 -73 4 -10 11
-15 17 -12 6 4 0 19 -15 39 -31 41 -31 49 -2 41 l22 -7 -21 22 c-12 12 -37 25
-55 29 -27 6 -12 10 76 20 61 7 117 14 125 16 8 2 59 3 113 2 83 -2 101 -5
112 -20z m-483 -129 c38 -31 21 -76 -36 -98 -52 -19 -59 -14 -54 34 3 24 12
51 19 60 17 19 50 20 71 4z m-2492 -38 c13 -24 13 -40 0 -40 -5 0 -10 5 -10
10 0 6 -9 19 -20 30 -11 11 -20 25 -20 30 0 16 37 -7 50 -30z m2017 1 c-8 -23
-7 -46 5 -103 19 -88 16 -100 -6 -25 -19 65 -21 128 -4 145 17 17 18 15 5 -17z
m-1528 -22 c-14 -8 -29 -3 -29 11 0 4 9 6 21 3 15 -4 17 -8 8 -14z m-231 -31
c6 -6 12 -16 11 -22 0 -7 -2 -6 -6 2 -2 6 -11 12 -19 12 -10 0 -12 -8 -7 -32
3 -18 10 -37 14 -42 15 -17 10 -27 -8 -17 -10 5 -49 24 -86 42 -38 18 -71 37
-74 42 -7 12 18 28 35 22 6 -2 12 0 12 6 0 13 109 1 128 -13z m1664 -10 c-17
-17 -15 -65 2 -71 14 -6 26 -36 46 -115 14 -56 -6 -45 -41 23 -25 46 -44 70
-71 85 -22 12 -41 32 -44 46 -3 13 -11 24 -18 25 -34 2 37 18 84 18 42 1 51
-2 42 -11z m-1555 -60 c-3 -8 -6 -5 -6 6 -1 11 2 17 5 13 3 -3 4 -12 1 -19z
m1330 -150 c-2 -13 -4 -3 -4 22 0 25 2 35 4 23 2 -13 2 -33 0 -45z m408 -24
c12 -11 28 -25 38 -30 10 -6 19 -21 22 -34 2 -13 10 -28 16 -34 9 -8 10 -7 4
3 -5 9 -3 12 4 10 7 -3 11 -7 9 -11 -2 -3 6 -15 16 -27 25 -27 14 -38 -18 -17
-34 22 -71 69 -112 146 -19 36 -27 54 -17 40 10 -14 27 -34 38 -46z m-51 -14
c38 -72 92 -145 122 -165 15 -9 47 -21 73 -25 44 -7 45 -8 10 -9 -30 -1 -38
-5 -43 -25 -3 -14 -20 -33 -36 -43 -36 -21 -39 -52 -8 -79 67 -60 94 -148 64
-206 -15 -29 -9 -37 12 -16 9 9 12 7 12 -9 0 -23 24 -48 38 -39 6 3 15 -1 22
-9 7 -8 16 -12 21 -9 5 3 21 -7 36 -21 16 -15 47 -40 71 -57 47 -33 48 -39 8
-113 -17 -32 -36 -48 -95 -78 -44 -22 -82 -35 -93 -31 -19 6 -24 -6 -8 -22 5
-5 6 -36 2 -74 -7 -60 -9 -65 -33 -68 -15 -2 -30 -12 -36 -25 -14 -30 -56 -51
-87 -43 -14 3 -25 10 -25 14 5 28 -5 20 -15 -13 -11 -39 -13 -40 -59 -43 -55
-4 -80 7 -67 28 7 11 11 11 24 1 14 -12 16 -10 16 8 0 12 -4 20 -9 17 -31 -20
-45 103 -17 146 16 24 57 58 71 58 3 0 5 -8 5 -17 0 -13 5 -10 19 11 l19 29 7
-37 7 -37 27 25 c20 20 38 26 69 26 59 0 52 14 -8 18 -30 1 -50 -2 -50 -8 0
-5 -4 -10 -10 -10 -5 0 -10 7 -10 15 0 8 7 15 15 15 8 0 15 5 15 11 0 7 -11 8
-29 4 -29 -6 -29 -5 -18 19 6 13 15 20 18 14 3 -5 9 2 12 18 3 20 -1 33 -20
50 -13 12 -30 21 -37 18 -7 -3 -18 8 -25 23 -10 21 -14 24 -22 12 -7 -11 -9
-8 -10 11 -1 14 -2 31 -2 38 1 16 -7 15 -45 -3 -18 -10 -41 -13 -56 -9 -28 7
-36 24 -11 24 8 0 15 5 15 12 0 6 3 8 6 5 13 -12 44 21 75 78 22 42 27 60 19
65 -7 4 -8 10 -3 13 18 11 12 76 -12 142 -14 36 -22 65 -18 65 4 0 2 5 -5 12
-7 7 -12 25 -12 40 0 15 -4 28 -10 28 -5 0 -10 9 -10 19 0 11 -5 23 -11 27 -8
4 -8 9 0 17 8 8 6 16 -5 28 -8 9 -18 42 -21 72 -5 50 -4 55 17 62 12 4 27 2
33 -4 16 -16 40 -14 34 3 -4 9 5 21 19 31 14 9 22 21 18 27 -4 6 -3 8 3 5 6
-4 23 -30 37 -57z m-1914 -220 l-11 -25 6 25 c2 14 5 34 6 45 2 19 2 19 6 0 2
-12 -1 -32 -7 -45z m503 33 c-3 -7 -9 -10 -14 -7 -14 8 -11 21 5 21 8 0 12 -6
9 -14z m47 -43 c0 -11 5 -20 10 -20 6 0 10 5 10 10 0 6 8 10 18 10 11 0 13 -3
5 -8 -8 -5 -2 -12 18 -21 41 -18 31 -24 -25 -16 -45 7 -96 37 -96 56 0 5 14 9
30 9 23 0 30 -4 30 -20z m-426 -305 c12 -13 13 -21 4 -41 -14 -29 -28 -15 -28
29 0 31 3 33 24 12z m1344 -589 c-22 -51 -38 -24 -17 31 9 24 12 26 20 11 6
-11 5 -26 -3 -42z m137 -11 c-10 -29 -14 -34 -15 -17 0 23 18 67 25 60 2 -2
-2 -22 -10 -43z m-1168 -77 c1 -11 7 -24 14 -28 8 -6 8 -9 -1 -15 -7 -4 -13 1
-17 14 -3 12 -10 21 -15 21 -6 0 -5 7 2 15 16 19 15 19 17 -7z m47 -53 c-4 -8
-1 -15 5 -15 6 0 8 -7 4 -17 -4 -11 -3 -14 5 -9 7 4 12 3 12 -3 0 -25 -19 -18
-29 11 -14 38 -14 48 -1 48 5 0 7 -7 4 -15z m-14 -38 c0 -5 -4 -5 -10 -2 -5 3
-10 14 -10 23 0 15 2 15 10 2 5 -8 10 -19 10 -23z m-325 -158 c9 -30 21 -62
26 -71 11 -22 11 -28 1 -28 -11 0 -82 179 -82 205 1 26 30 -32 55 -106z m405
39 c0 -5 -4 -8 -10 -8 -5 0 -10 10 -10 23 0 18 2 19 10 7 5 -8 10 -18 10 -22z
m40 -350 c0 -18 -2 -20 -9 -8 -6 8 -7 18 -5 22 9 14 14 9 14 -14z m-300 -28
c0 -21 -25 -4 -28 20 -4 21 -2 22 12 7 9 -8 16 -21 16 -27z m320 -125 c0 -8
-4 -15 -10 -15 -5 0 -10 7 -10 15 0 8 5 15 10 15 6 0 10 -7 10 -15z m-629
-682 c13 -15 12 -15 -11 -3 -34 17 -36 20 -18 20 9 0 22 -7 29 -17z m-605
-108 c1 -14 -5 -27 -15 -30 -14 -6 -13 -8 4 -15 18 -8 18 -9 2 -9 -11 -1 -21
8 -24 20 -4 14 -12 19 -24 16 -11 -3 -22 -1 -25 4 -8 14 -61 11 -76 -4 -18
-18 -74 -19 -89 -1 -15 18 -29 18 -29 0 0 -7 -7 -19 -16 -27 -14 -11 -15 -9
-12 17 4 40 43 51 187 52 115 1 116 1 117 -23z m69 5 c4 -6 -5 -10 -20 -10
-15 0 -24 4 -20 10 3 6 12 10 20 10 8 0 17 -4 20 -10z m726 -17 c13 -16 12
-17 -3 -4 -17 13 -22 21 -14 21 2 0 10 -8 17 -17z m-602 -18 c10 -10 -19 -28
-56 -35 -21 -3 -37 -11 -36 -17 3 -12 -34 -6 -42 7 -8 13 24 40 46 40 10 0 19
5 19 11 0 11 57 6 69 -6z m649 6 c11 -7 10 -9 -3 -14 -9 -4 -14 -3 -10 2 3 5
-1 12 -7 14 -7 3 -8 6 -3 6 6 0 16 -3 23 -8z m-532 -33 c13 -6 24 -19 24 -30
0 -20 16 -25 22 -6 6 17 58 -17 58 -37 0 -8 5 -15 10 -15 6 0 10 5 10 11 0 8
4 8 15 -1 13 -11 13 -14 0 -27 -8 -8 -15 -17 -15 -21 0 -13 55 -62 70 -62 34
0 73 -71 48 -86 -4 -3 -6 -9 -3 -13 2 -5 -7 -6 -20 -3 -14 2 -25 10 -25 18 0
22 -20 27 -45 10 -21 -14 -24 -14 -29 1 -4 8 -1 22 5 29 9 11 8 14 -3 14 -8 0
-19 -5 -24 -10 -7 -7 -16 -4 -29 10 -16 18 -16 20 -2 20 23 0 21 10 -7 41 -31
36 -62 51 -86 44 -11 -4 -29 0 -41 9 l-22 15 26 12 c30 14 65 7 92 -18 32 -29
72 -52 79 -46 10 10 -35 52 -49 47 -6 -3 -19 6 -28 19 -13 20 -26 25 -74 29
-32 3 -69 1 -82 -4 -14 -5 -32 -6 -40 -3 -13 6 -12 10 8 26 13 10 34 19 47 19
26 0 40 15 22 24 -7 3 4 3 25 0 22 -3 50 -10 63 -16z m641 -61 c24 -17 41 -32
38 -35 -4 -4 -105 68 -105 76 0 5 18 -6 67 -41z m-457 -62 c7 -9 21 -13 30
-10 11 4 29 -4 47 -19 l28 -25 -25 6 c-23 6 -24 5 -10 -13 14 -18 14 -18 -5
-4 -11 8 -41 26 -67 40 -31 16 -43 27 -35 32 17 11 23 10 37 -7z m545 3 c4 -3
2 -9 -3 -12 -5 -3 -15 1 -21 8 -10 11 -9 14 3 12 9 -1 18 -5 21 -8z m-283
-177 c7 -10 16 -19 21 -19 4 -1 19 -10 34 -19 l27 -18 -29 -6 c-36 -7 -96 20
-119 53 -21 30 -20 13 1 -23 21 -34 12 -46 -22 -31 -14 7 -35 12 -47 12 -11 0
-27 8 -34 18 -15 19 -19 46 -5 38 5 -3 14 1 21 9 19 23 71 18 115 -11 l40 -26
-37 35 c-21 20 -38 39 -38 42 0 10 58 -34 72 -54z m-121 -110 c-1 -2 3 -8 11
-12 10 -7 6 -15 -17 -34 -38 -31 -40 -31 -55 4 -12 30 -6 56 10 46 5 -3 14 4
21 16 11 21 12 22 22 3 6 -10 10 -21 8 -23z m289 -96 c7 -14 24 -32 37 -40 12
-9 23 -23 23 -32 0 -8 17 -32 38 -51 25 -24 29 -31 13 -23 -16 9 -42 11 -82 7
-39 -5 -59 -3 -59 4 0 5 -9 10 -19 10 -26 0 -51 10 -51 21 0 5 8 9 18 9 14 0
15 2 2 10 -26 17 6 11 51 -10 24 -11 53 -20 64 -19 20 0 20 0 1 14 -11 8 -16
15 -11 15 5 0 -13 23 -40 52 -28 29 -42 46 -32 39 14 -11 17 -11 17 3 0 24 15
19 30 -9z m-64 -30 l49 -44 -63 23 c-35 12 -62 25 -60 29 2 3 -6 12 -16 20
-18 13 -17 14 11 15 22 0 43 -11 79 -43z m-131 -15 c3 -5 1 -10 -6 -10 -8 0
-8 -4 1 -15 10 -12 10 -15 -3 -15 -27 0 -64 18 -70 34 -5 13 1 16 33 16 21 0
42 -4 45 -10z m79 -81 c-3 -5 -13 -5 -25 1 -21 12 -21 12 -12 36 6 15 8 15 25
-6 10 -12 15 -26 12 -31z m134 -494 c-3 -3 -9 2 -12 12 -6 14 -5 15 5 6 7 -7
10 -15 7 -18z m837 -172 c39 -43 41 -49 20 -57 -17 -6 -79 70 -69 85 8 14 11
12 49 -28z m105 -104 c8 -15 7 -19 -3 -19 -8 0 -17 11 -19 25 -6 27 6 24 22
-6z m180 -233 c7 -9 25 -16 40 -16 35 0 52 -21 48 -57 -2 -20 -9 -29 -24 -31
-20 -3 -33 8 -72 64 -12 18 -13 18 -7 -1 3 -11 3 -16 -2 -12 -4 5 -13 26 -19
47 -11 36 -10 39 5 30 10 -5 23 -16 31 -24z m189 -134 c-27 -36 -92 -87 -97
-74 -2 6 -10 12 -18 12 -25 0 -15 18 17 29 17 6 28 15 24 21 -3 6 4 10 17 10
14 0 33 6 44 14 24 18 30 13 13 -12z"/>
<path d="M3356 5704 c-9 -22 3 -32 14 -14 12 19 12 30 1 30 -5 0 -12 -7 -15
-16z"/>
<path d="M2930 5650 c0 -5 5 -10 10 -10 6 0 10 5 10 10 0 6 -4 10 -10 10 -5 0
-10 -4 -10 -10z"/>
<path d="M2930 5610 c0 -5 5 -10 11 -10 5 0 7 5 4 10 -3 6 -8 10 -11 10 -2 0
-4 -4 -4 -10z"/>
<path d="M2920 5579 c0 -5 5 -7 10 -4 6 3 10 8 10 11 0 2 -4 4 -10 4 -5 0 -10
-5 -10 -11z"/>
<path d="M4400 5308 c0 -9 5 -20 11 -23 17 -11 20 0 4 21 -13 17 -14 17 -15 2z"/>
<path d="M4415 5260 c4 -6 11 -8 16 -5 14 9 11 15 -7 15 -8 0 -12 -5 -9 -10z"/>
<path d="M5130 5120 c-13 -9 -12 -12 4 -25 27 -20 53 -19 65 4 9 16 8 18 -11
13 -14 -3 -19 -1 -14 6 9 15 -23 16 -44 2z"/>
<path d="M5233 5115 c-22 -24 -15 -35 22 -35 38 0 44 10 19 34 -19 19 -25 19
-41 1z"/>
<path d="M4972 4927 c-12 -7 -21 -15 -18 -18 3 -2 6 -30 7 -61 2 -37 7 -59 16
-62 9 -4 13 3 13 20 0 30 28 76 42 68 6 -4 6 1 -1 12 -5 11 -12 27 -15 37 -6
20 -13 21 -44 4z"/>
<path d="M5160 4910 c0 -5 5 -10 11 -10 5 0 7 5 4 10 -3 6 -8 10 -11 10 -2 0
-4 -4 -4 -10z"/>
<path d="M5155 4880 c-3 -5 -1 -10 4 -10 6 0 11 5 11 10 0 6 -2 10 -4 10 -3 0
-8 -4 -11 -10z"/>
<path d="M2530 4872 c0 -17 4 -34 10 -37 6 -4 7 6 3 27 -8 44 -13 48 -13 10z"/>
<path d="M4354 4575 c0 -14 6 -25 12 -25 7 0 9 10 6 25 -6 32 -20 32 -18 0z"/>
<path d="M4451 4059 c-13 -5 -22 -12 -19 -14 6 -6 58 12 58 20 0 7 -11 5 -39
-6z"/>
<path d="M1615 1927 c-11 -8 -14 -16 -8 -20 6 -4 18 2 28 13 21 23 8 27 -20 7z"/>
<path d="M1664 1925 c-25 -19 -15 -19 27 0 25 10 29 14 13 15 -11 0 -29 -7
-40 -15z"/>
<path d="M2074 1859 c-7 -12 12 -29 34 -29 19 0 14 18 -7 30 -14 7 -22 7 -27
-1z"/>
<path d="M2344 1625 c21 -16 32 -13 21 4 -3 6 -14 11 -23 11 -15 -1 -15 -2 2
-15z"/>
<path d="M3715 7200 c-3 -5 -1 -10 4 -10 6 0 11 5 11 10 0 6 -2 10 -4 10 -3 0
-8 -4 -11 -10z"/>
<path d="M3248 7183 c6 -2 18 -2 25 0 6 3 1 5 -13 5 -14 0 -19 -2 -12 -5z"/>
<path d="M3285 7170 c-3 -5 -2 -10 4 -10 5 0 13 5 16 10 3 6 2 10 -4 10 -5 0
-13 -4 -16 -10z"/>
<path d="M2501 6633 c7 -10 15 -20 16 -22 2 -2 3 3 3 11 0 9 -7 19 -16 22 -15
6 -15 4 -3 -11z"/>
<path d="M2486 6593 c-6 -14 -5 -15 5 -6 7 7 10 15 7 18 -3 3 -9 -2 -12 -12z"/>
<path d="M4800 6481 c0 -6 4 -13 10 -16 6 -3 7 1 4 9 -7 18 -14 21 -14 7z"/>
<path d="M4635 6473 c-22 -2 -47 -6 -55 -9 -28 -10 14 -24 46 -15 19 5 38 4
57 -6 21 -11 27 -11 27 -1 1 9 4 9 13 -2 7 -8 21 -22 32 -30 18 -14 19 -13 8
1 -7 9 -10 19 -6 22 3 4 -1 7 -10 7 -9 0 -17 4 -17 8 0 8 -48 35 -53 30 -1 -1
-20 -3 -42 -5z"/>
<path d="M4533 6408 c-5 -7 -7 -24 -3 -38 6 -21 8 -22 15 -8 5 13 15 16 38 12
l32 -4 -30 14 c-16 8 -33 12 -37 10 -4 -3 -5 2 -2 10 7 19 0 21 -13 4z"/>
<path d="M4585 6410 c8 -14 66 -43 72 -37 2 3 -5 10 -16 17 -12 6 -19 15 -16
21 4 5 -6 9 -20 9 -15 0 -24 -4 -20 -10z"/>
<path d="M4700 6406 c0 -3 14 -12 30 -21 17 -9 30 -13 30 -11 0 3 -13 12 -30
21 -16 9 -30 13 -30 11z"/>
<path d="M4571 6344 c0 -11 3 -14 6 -6 3 7 2 16 -1 19 -3 4 -6 -2 -5 -13z"/>
<path d="M4590 6351 c0 -5 8 -8 18 -7 12 1 17 -6 17 -24 0 -15 6 -26 18 -28 9
-2 17 1 17 7 0 6 -5 11 -11 11 -5 0 -7 5 -4 11 4 6 -1 17 -11 24 -22 16 -44
19 -44 6z"/>
<path d="M4673 6295 c-7 -20 -5 -22 32 -27 17 -3 24 -3 18 -1 -7 3 -13 9 -13
14 0 5 -7 9 -16 9 -8 0 -12 5 -9 10 3 6 4 10 0 10 -3 0 -8 -7 -12 -15z"/>
<path d="M4714 6018 c-4 -7 -3 -8 4 -4 7 4 12 2 12 -5 0 -7 3 -9 7 -6 3 4 13
1 22 -5 10 -8 9 -4 -3 10 -21 25 -32 27 -42 10z"/>
<path d="M2142 5855 c0 -16 2 -22 5 -12 2 9 2 23 0 30 -3 6 -5 -1 -5 -18z"/>
<path d="M2150 5715 c-1 -5 -3 -20 -6 -32 -2 -13 0 -23 5 -23 14 0 19 23 10
45 -4 11 -8 16 -9 10z"/>
<path d="M2152 5565 c0 -16 2 -22 5 -12 2 9 2 23 0 30 -3 6 -5 -1 -5 -18z"/>
<path d="M2176 5485 c-3 -8 -1 -15 4 -15 6 0 10 7 10 15 0 8 -2 15 -4 15 -2 0
-6 -7 -10 -15z"/>
<path d="M2230 5400 c0 -5 5 -10 10 -10 6 0 10 5 10 10 0 6 -4 10 -10 10 -5 0
-10 -4 -10 -10z"/>
<path d="M5420 5149 c0 -15 7 -29 15 -33 8 -3 15 -18 16 -33 1 -15 5 -39 9
-53 6 -17 8 -8 4 30 -2 30 -9 57 -14 58 -6 2 -8 7 -5 11 2 5 -2 17 -10 27 -14
18 -14 18 -15 -7z"/>
<path d="M5460 4973 c0 -18 2 -33 4 -33 9 0 13 39 5 51 -6 10 -9 4 -9 -18z"/>
<path d="M2740 4746 c0 -2 8 -10 18 -17 15 -13 16 -12 3 4 -13 16 -21 21 -21
13z"/>
<path d="M2720 4620 c0 -5 7 -10 15 -10 8 0 15 5 15 10 0 6 -7 10 -15 10 -8 0
-15 -4 -15 -10z"/>
<path d="M2778 4603 c7 -3 16 -2 19 1 4 3 -2 6 -13 5 -11 0 -14 -3 -6 -6z"/>
<path d="M2811 4593 c-1 -7 -8 -13 -17 -13 -8 0 -12 -5 -9 -11 4 -6 13 -8 21
-5 8 3 14 0 14 -6 0 -6 2 -9 5 -6 3 3 1 16 -4 29 -5 13 -10 18 -10 12z"/>
<path d="M2827 4534 c-4 -4 -2 -13 4 -21 9 -9 8 -13 0 -13 -6 0 -11 -10 -11
-22 l0 -22 15 21 c15 21 8 72 -8 57z"/>
<path d="M2838 4455 c-6 -30 -3 -43 8 -33 3 4 4 19 2 35 l-3 28 -7 -30z"/>
<path d="M2861 4434 c0 -11 3 -14 6 -6 3 7 2 16 -1 19 -3 4 -6 -2 -5 -13z"/>
<path d="M2800 4429 c0 -5 5 -7 10 -4 6 3 10 8 10 11 0 2 -4 4 -10 4 -5 0 -10
-5 -10 -11z"/>
<path d="M2725 3710 c3 -5 11 -10 16 -10 6 0 7 5 4 10 -3 6 -11 10 -16 10 -6
0 -7 -4 -4 -10z"/>
<path d="M5140 3234 c30 -34 43 -45 49 -39 6 7 -30 45 -54 57 -17 9 -16 6 5
-18z"/>
<path d="M4350 3209 c0 -5 5 -7 10 -4 6 3 10 8 10 11 0 2 -4 4 -10 4 -5 0 -10
-5 -10 -11z"/>
<path d="M5230 3201 c0 -5 7 -14 15 -21 16 -14 18 -10 9 14 -6 17 -24 22 -24
7z"/>
<path d="M5260 3203 c0 -16 28 -43 46 -43 8 0 14 7 14 15 0 13 -12 17 -36 14
-4 0 -11 5 -15 13 -6 9 -9 9 -9 1z"/>
<path d="M5350 3170 c0 -5 5 -10 11 -10 5 0 7 5 4 10 -3 6 -8 10 -11 10 -2 0
-4 -4 -4 -10z"/>
<path d="M5415 3160 c-3 -5 -1 -10 4 -10 6 0 11 5 11 10 0 6 -2 10 -4 10 -3 0
-8 -4 -11 -10z"/>
<path d="M5330 3036 c0 -5 44 -51 62 -65 16 -12 16 -11 3 16 -8 16 -26 35 -40
41 -14 6 -25 10 -25 8z"/>
<path d="M5430 3003 c0 -5 9 -19 20 -33 18 -23 20 -23 20 -5 0 11 -9 26 -20
33 -11 7 -20 9 -20 5z"/>
<path d="M5192 2960 c-2 -22 1 -40 7 -40 12 0 22 28 12 35 -5 3 -7 14 -4 25 3
11 1 20 -4 20 -5 0 -10 -18 -11 -40z"/>
<path d="M5486 2962 c-10 -16 1 -32 22 -32 11 0 13 3 6 8 -6 4 -13 14 -16 22
-3 10 -6 11 -12 2z"/>
<path d="M4930 2900 c0 -6 7 -13 16 -17 9 -3 39 -29 66 -57 114 -116 116 -120
51 -105 -20 4 -40 7 -44 6 -14 -3 -91 77 -101 106 l-10 27 -19 -37 c-43 -84
-27 -97 146 -119 61 -7 153 -20 205 -29 52 -8 118 -15 145 -15 28 0 86 -6 130
-14 179 -32 254 -64 310 -131 17 -20 38 -44 47 -53 9 -10 29 -35 44 -57 14
-22 33 -44 40 -48 19 -11 65 -80 135 -203 95 -168 230 -463 233 -510 0 -13 4
-24 9 -24 4 0 7 -9 7 -21 0 -11 9 -57 21 -102 18 -69 21 -111 20 -262 -1 -342
-8 -620 -19 -675 -13 -68 -86 -239 -121 -283 -8 -9 -11 -20 -7 -24 4 -4 12 -1
17 7 8 12 9 11 7 -5 -2 -14 3 -21 19 -23 27 -4 53 32 53 75 0 23 5 33 15 33 8
0 14 3 14 8 -3 19 2 42 10 42 17 0 21 -71 4 -96 -12 -19 -13 -24 -2 -24 8 0 2
-10 -13 -21 -32 -24 -37 -39 -10 -32 25 6 67 -29 59 -50 -8 -21 -46 -46 -76
-49 -24 -3 -27 1 -58 67 -17 38 -18 39 -21 13 -4 -31 -32 -61 -32 -34 0 9 5
16 10 16 12 0 13 47 1 54 -14 9 -102 -105 -107 -139 0 -5 -2 -19 -3 -30 -2
-11 -5 -15 -8 -7 -2 6 -8 12 -12 12 -11 0 -61 -51 -61 -61 0 -5 52 -9 115 -9
114 0 115 0 121 25 3 14 10 25 15 25 5 0 9 7 9 16 0 14 3 14 15 4 19 -16 19
-29 -2 -52 -15 -17 -15 -18 2 -18 10 0 27 7 37 17 17 15 18 15 18 0 0 -10 6
-17 14 -17 11 0 12 7 4 35 -9 26 -8 38 2 50 13 16 55 21 64 7 3 -5 25 -4 49 2
l44 10 -30 25 c-22 18 -39 24 -65 22 -39 -3 -39 0 15 66 49 61 72 53 38 -13
-13 -26 -13 -30 8 -52 29 -32 118 -78 103 -54 -2 4 -7 27 -9 50 -5 39 4 55 18
32 3 -5 11 -10 17 -10 6 0 4 8 -5 18 -23 25 -22 33 15 91 31 51 31 51 12 72
-10 12 -14 20 -9 18 24 -10 75 -45 75 -50 0 -9 -64 -65 -80 -71 -6 -2 -8 -11
-5 -21 5 -12 14 -15 32 -11 l25 7 -5 -64 c-2 -35 -2 -52 0 -37 4 25 44 68 64
68 13 0 9 -49 -9 -103 -16 -49 -11 -76 16 -85 9 -3 10 10 6 45 -4 37 -3 44 6
33 8 -12 10 -3 9 40 -1 74 -1 76 12 63 8 -8 16 -7 30 5 24 21 24 32 1 32 -10
0 -31 18 -48 40 -16 22 -35 40 -42 40 -10 0 -10 5 -2 21 18 34 4 67 -33 78
-17 5 -24 10 -14 10 10 1 28 11 41 24 12 12 40 29 62 36 25 8 44 22 52 39 17
37 15 48 -6 29 -26 -23 -49 -23 -31 0 12 15 12 16 -3 10 -12 -4 -18 -2 -18 8
0 8 5 15 10 15 6 0 10 6 10 14 0 8 5 16 12 18 9 3 9 11 -1 35 -7 17 -11 44 -9
60 2 21 -1 27 -12 24 -37 -10 -54 -5 -59 16 -4 16 -10 20 -20 14 -9 -6 -10
-11 -3 -15 18 -11 2 -36 -23 -36 -26 0 -27 -20 -6 -73 7 -17 7 -26 1 -22 -6 3
-10 1 -10 -5 0 -18 -28 -42 -35 -30 -3 5 -4 14 -1 19 4 5 1 11 -6 13 -9 3 -10
18 -2 61 6 31 7 62 2 69 -5 8 -8 1 -8 -19 0 -17 -7 -39 -16 -47 -14 -14 -14
-23 -3 -69 7 -28 21 -64 31 -78 15 -23 16 -28 3 -33 -16 -6 -21 -36 -7 -36 5
0 19 11 31 24 13 14 33 26 45 28 13 2 21 10 21 23 0 13 -6 19 -16 17 -13 -2
-15 7 -11 50 3 41 0 55 -14 65 -25 18 -11 27 31 19 33 -7 50 -26 23 -26 -7 0
-1 -8 14 -17 18 -12 26 -24 24 -38 -2 -11 -8 -19 -14 -18 -5 1 -13 -18 -16
-42 -4 -25 -11 -47 -16 -50 -5 -3 -7 -12 -3 -20 3 -9 -1 -15 -11 -15 -9 0 -16
-4 -16 -10 0 -5 -14 -10 -31 -10 -31 0 -31 0 -15 -25 19 -28 13 -31 -26 -11
-26 14 -27 13 -37 -12 -10 -25 -11 -23 -8 16 l3 43 -42 -7 c-32 -4 -45 -2 -59
12 -13 13 -17 14 -13 4 2 -8 -2 -21 -9 -29 -8 -7 -13 -23 -11 -35 2 -17 9 -20
35 -18 27 3 33 0 39 -22 8 -32 -1 -46 -30 -46 -27 0 -46 18 -46 42 0 10 -4 18
-10 18 -5 0 -10 -6 -10 -14 0 -8 -9 -24 -20 -37 l-20 -24 6 30 c4 17 11 38 15
47 13 24 11 38 -4 38 -31 0 -59 86 -38 119 13 20 45 -32 39 -64 -7 -35 -1 -31
17 12 14 34 14 42 1 83 -8 24 -13 46 -12 48 10 9 39 -58 38 -84 -2 -22 3 -34
14 -38 13 -5 15 -2 10 20 -6 23 -5 25 16 19 32 -10 68 -34 68 -45 0 -21 27 -9
39 16 10 23 8 35 -10 80 -21 49 -24 52 -39 39 -9 -8 -20 -12 -23 -8 -4 3 -7 2
-7 -4 0 -20 14 -23 32 -6 17 15 18 15 18 -14 0 -22 -6 -32 -20 -36 -11 -3 -20
-1 -20 4 0 5 -9 9 -19 9 -25 0 -17 35 16 71 18 20 25 40 28 85 2 33 2 48 -1
34 -11 -58 -15 -70 -23 -70 -5 0 -4 19 1 43 5 23 12 57 15 75 3 20 11 32 21
32 12 0 13 3 4 12 -22 22 -12 104 12 91 6 -3 6 -1 -1 8 -7 7 -13 25 -13 40 0
19 -14 41 -47 73 -25 25 -41 46 -34 46 7 0 11 9 9 22 -2 13 -9 22 -15 21 -12
-3 -29 54 -19 64 3 4 17 1 31 -5 23 -11 29 -27 28 -69 -1 -7 3 -11 7 -8 5 3
11 1 15 -5 9 -15 25 -12 25 4 0 24 -70 106 -91 106 -16 0 -17 3 -8 18 13 20
49 24 49 5 0 -17 15 -24 34 -17 11 4 14 13 11 25 -4 11 -2 19 4 19 6 0 8 7 5
15 -4 8 1 17 10 21 12 4 15 13 10 28 -6 17 -4 19 7 9 8 -6 19 -11 24 -10 6 1
11 -20 13 -48 2 -31 6 -44 12 -36 4 8 13 10 19 7 14 -9 4 -72 -15 -101 -20
-28 -18 -66 2 -58 13 5 15 2 9 -18 -4 -13 -12 -30 -17 -36 -7 -9 -7 -13 0 -13
19 0 27 24 27 85 0 55 2 60 21 58 30 -3 39 43 13 65 -13 12 -15 18 -7 23 9 6
8 13 -5 27 -9 10 -17 29 -17 43 0 13 -9 38 -20 54 -18 28 -20 28 -20 8 0 -34
-20 -28 -27 7 -3 17 -10 33 -14 36 -5 3 -9 15 -9 27 0 13 -7 33 -16 45 -15 21
-14 22 15 22 32 0 51 -22 51 -59 0 -12 5 -21 10 -21 6 0 10 6 10 13 0 7 9 18
20 25 17 10 18 16 10 32 -6 12 -21 20 -35 20 -13 0 -27 5 -31 11 -5 8 -9 8
-14 -1 -6 -10 -13 -9 -31 4 -40 28 -56 21 -51 -21 l5 -36 -26 24 c-28 26 -47
79 -28 79 6 0 11 -4 11 -8 0 -13 71 -1 77 13 2 8 -3 25 -12 38 -15 24 -15 26
2 30 15 3 13 6 -9 15 -28 12 -38 32 -16 32 17 0 -7 23 -27 26 -20 3 -19 -4 5
-54 26 -53 25 -54 -7 -50 -25 3 -28 6 -25 37 3 27 1 33 -12 28 -10 -4 -16 -1
-16 7 0 8 5 16 12 18 6 2 12 13 14 24 3 19 3 19 -12 0 -18 -25 -22 -20 -26 36
-2 26 -7 44 -13 42 -15 -6 -37 58 -25 70 7 7 10 1 10 -17 0 -15 5 -27 11 -27
7 0 9 9 6 23 -6 21 -6 21 8 3 9 -11 16 -15 17 -8 3 31 2 37 -7 37 -21 0 -35
17 -35 42 0 18 4 24 15 19 23 -8 18 15 -9 43 -33 36 -37 65 -9 69 33 5 57 -38
49 -87 -7 -45 7 -91 28 -91 11 0 12 8 6 35 -4 19 -4 38 1 40 17 11 -45 103
-89 130 -24 15 -44 26 -46 24 -9 -11 -16 -79 -7 -79 5 0 9 -20 9 -45 -1 -49
-11 -57 -29 -24 -8 16 -8 23 0 28 8 5 2 21 -18 48 l-30 41 30 6 c30 6 38 27
20 56 -13 20 -2 34 15 19 11 -9 14 -8 14 7 0 11 -4 25 -9 33 -16 26 -73 -22
-85 -71 -9 -38 -18 -35 -49 12 -22 35 -24 41 -10 49 19 10 8 32 -12 24 -8 -3
-15 0 -15 6 0 6 -6 11 -13 11 -20 0 -60 47 -54 63 6 15 63 12 73 -4 11 -18 32
-8 36 16 6 31 -1 40 -17 19 -10 -14 -13 -12 -23 10 -14 31 1 42 44 32 19 -5
25 -3 22 6 -3 7 -16 14 -31 16 -34 4 -57 30 -37 42 12 7 11 10 -5 17 -32 13
-128 120 -113 126 7 3 3 6 -9 6 -12 1 -28 4 -36 7 -8 3 -21 -2 -30 -10 -13
-14 -16 -14 -21 -1 -3 9 0 15 9 15 8 0 15 5 15 10 0 14 -23 13 -38 -2 -9 -9
-12 -9 -12 0 0 7 -8 12 -17 12 -9 0 -13 -3 -10 -7 4 -3 2 -12 -4 -19 -12 -15
-5 -44 11 -44 5 0 10 9 10 20 0 27 12 25 40 -5 30 -32 22 -39 -37 -36 -30 1
-68 42 -51 53 10 7 9 8 -2 7 -8 -1 -26 3 -40 8 -21 9 -22 12 -8 18 9 4 23 4
30 0 7 -4 -2 7 -20 25 -23 22 -39 29 -50 24 -10 -4 -34 -9 -55 -12 -36 -4 -38
-3 -35 19 2 16 11 25 26 27 22 3 32 32 11 32 -20 0 -99 -41 -99 -51 0 -6 -6
-9 -12 -6 -7 2 -12 10 -10 17 1 7 -5 10 -15 7 -10 -3 -36 -8 -58 -12 -22 -4
-44 -10 -50 -15 -27 -22 -52 -11 -120 54 l-70 66 -5 -27 c-3 -16 -1 -31 4 -35
6 -4 7 -10 3 -14 -10 -10 -34 13 -61 62 -18 33 -22 50 -17 71 8 27 9 26 22
-21 17 -60 39 -73 39 -23 0 39 -25 74 -55 79 -16 2 -19 -2 -17 -24 2 -23 0
-26 -20 -21 l-23 6 21 -19 c19 -17 37 -60 39 -91 0 -7 6 -18 13 -25 23 -23 12
-28 -58 -28 -67 0 -70 1 -85 30 -19 36 -19 41 0 34 19 -8 19 11 0 28 -38 35
-49 42 -69 44 -12 1 -24 3 -27 3 -4 1 -9 10 -12 21 -3 11 -12 20 -20 20 -8 0
-17 7 -21 15 -6 17 -36 21 -36 5z m400 -210 c0 -5 -4 -10 -10 -10 -5 0 -10 5
-10 10 0 6 5 10 10 10 6 0 10 -4 10 -10z m736 -137 c-4 -8 5 -18 20 -23 14 -6
31 -25 39 -44 8 -19 19 -37 25 -41 19 -12 10 -22 -16 -17 -19 3 -25 1 -20 -7
10 -16 -44 -14 -66 3 -22 16 -23 30 -2 50 12 12 20 13 35 6 31 -17 22 -5 -38
54 -32 31 -52 56 -45 56 6 0 12 -4 12 -10 0 -5 5 -10 10 -10 6 0 10 7 10 17 0
14 2 14 20 -2 12 -10 18 -25 16 -32z m-20 -50 c-8 -8 -36 5 -36 17 0 7 6 7 21
0 11 -7 18 -14 15 -17z m87 -343 c13 0 80 -130 72 -139 -8 -7 -34 32 -35 51 0
9 -4 18 -8 20 -12 5 -52 77 -51 91 1 7 3 4 6 -5 2 -10 10 -18 16 -18z m112
-200 c3 -5 2 -10 -4 -10 -5 0 -13 5 -16 10 -3 6 -2 10 4 10 5 0 13 -4 16 -10z
m182 -187 c-11 -10 -26 8 -20 23 5 15 7 14 15 -1 6 -9 7 -19 5 -22z m-17 -78
c-7 -8 -16 -15 -21 -15 -5 0 -9 7 -9 15 0 9 9 15 21 15 18 0 19 -2 9 -15z m70
-175 c0 -5 -5 -10 -11 -10 -6 0 -9 -7 -5 -15 3 -8 1 -15 -3 -15 -5 0 -16 -3
-25 -6 -26 -10 -20 31 7 44 29 14 37 14 37 2z m46 -58 c-3 -5 6 -15 19 -22 14
-7 27 -22 31 -33 8 -26 -17 -42 -30 -19 -5 9 -15 21 -23 25 -15 9 -18 57 -2
57 5 0 8 -4 5 -8z m-26 -38 c0 -11 -5 -14 -16 -10 -9 3 -22 6 -30 6 -9 0 -12
5 -9 10 10 17 55 12 55 -6z m-37 -54 c-3 -11 -9 -20 -14 -20 -5 0 -9 9 -9 20
0 11 6 20 14 20 9 0 12 -7 9 -20z m103 -67 c-7 -7 -26 7 -26 19 0 6 6 6 15 -2
9 -7 13 -15 11 -17z m-6 -327 c0 -8 -4 -17 -9 -20 -5 -3 -6 -26 -4 -50 7 -55
-3 -96 -22 -96 -7 0 -17 10 -21 23 -3 12 -13 29 -20 38 -18 20 -9 46 17 54 12
4 19 16 19 30 0 21 10 32 33 34 4 1 7 -5 7 -13z m-64 -155 c-3 -5 1 -11 9 -15
22 -8 18 -25 -5 -21 -29 6 -40 14 -40 31 0 8 9 14 21 14 11 0 18 -4 15 -9z
m-19 -68 c-4 -3 1 -12 11 -19 9 -7 14 -16 10 -20 -4 -4 -14 -2 -21 4 -24 20
-27 1 -6 -29 18 -26 19 -31 6 -44 -13 -13 -16 -10 -28 18 -12 29 -13 71 -2 90
2 4 11 7 20 7 9 0 13 -3 10 -7z m163 -454 c0 -10 -14 -27 -30 -39 -25 -18 -34
-19 -45 -10 -23 19 -18 49 13 75 25 21 28 22 45 8 9 -9 17 -24 17 -34z m-201
-60 c-29 -18 -44 -9 -19 11 15 11 26 15 29 8 2 -6 -3 -14 -10 -19z"/>
<path d="M5187 2891 c-4 -17 -3 -21 5 -13 5 5 8 16 6 23 -3 8 -7 3 -11 -10z"/>
<path d="M2780 2775 c0 -15 18 -40 24 -34 3 3 -1 14 -9 25 -8 10 -14 15 -15 9z"/>
<path d="M5210 2735 c13 -14 26 -25 28 -25 3 0 -5 11 -18 25 -13 14 -26 25
-28 25 -3 0 5 -11 18 -25z"/>
<path d="M6170 2510 c0 -5 5 -10 11 -10 5 0 7 5 4 10 -3 6 -8 10 -11 10 -2 0
-4 -4 -4 -10z"/>
<path d="M6242 2299 c-10 -16 -17 -18 -25 -10 -16 16 -37 14 -37 -5 0 -8 4
-12 10 -9 11 7 60 -38 60 -55 0 -5 4 -10 10 -10 5 0 7 7 4 15 -9 23 5 65 21
65 9 0 12 6 9 15 -9 22 -37 18 -52 -6z"/>
<path d="M6378 2163 c7 -3 16 -2 19 1 4 3 -2 6 -13 5 -11 0 -14 -3 -6 -6z"/>
<path d="M6486 1878 c-18 -20 -18 -22 4 -67 15 -30 25 -41 28 -31 2 8 11 30
18 49 14 33 15 34 35 16 13 -13 18 -14 14 -4 -5 12 -69 61 -77 58 -2 0 -11
-10 -22 -21z"/>
<path d="M6551 1747 c12 -43 35 -74 58 -80 23 -6 26 0 11 23 -5 8 -5 17 0 20
13 8 -11 34 -46 52 l-32 15 9 -30z"/>
<path d="M1190 1650 c-8 -16 -8 -18 4 -14 17 6 30 34 16 34 -5 0 -14 -9 -20
-20z"/>
<path d="M6600 1646 c0 -20 19 -31 32 -18 7 7 3 14 -11 21 -17 10 -21 9 -21
-3z"/>
<path d="M6600 1593 c0 -6 11 -18 25 -27 14 -9 25 -12 25 -6 0 5 7 10 15 10 8
0 15 4 15 8 0 16 -12 21 -35 12 -14 -5 -26 -5 -34 3 -8 8 -11 8 -11 0z"/>
<path d="M3618 1513 c7 -3 16 -2 19 1 4 3 -2 6 -13 5 -11 0 -14 -3 -6 -6z"/>
<path d="M6747 1401 c4 -15 1 -21 -11 -21 -9 0 -16 -2 -16 -4 0 -2 -3 -11 -6
-19 -3 -10 3 -17 20 -21 13 -3 28 -15 31 -27 4 -11 9 -19 11 -16 6 6 -17 110
-27 121 -4 5 -5 -1 -2 -13z"/>
<path d="M6690 1399 c0 -5 5 -7 10 -4 6 3 10 8 10 11 0 2 -4 4 -10 4 -5 0 -10
-5 -10 -11z"/>
<path d="M6591 1295 c0 -5 11 -30 25 -55 14 -25 23 -37 20 -27 -3 10 -6 25 -6
32 0 7 -9 23 -20 36 -10 13 -19 20 -19 14z"/>
<path d="M6740 1261 c0 -6 5 -13 10 -16 6 -3 10 1 10 9 0 9 -4 16 -10 16 -5 0
-10 -4 -10 -9z"/>
<path d="M2960 1203 c0 -11 7 -27 16 -34 15 -12 16 -11 9 11 -10 35 -25 49
-25 23z"/>
<path d="M6580 1206 c0 -8 5 -18 10 -21 6 -3 10 1 10 9 0 8 -4 18 -10 21 -5 3
-10 -1 -10 -9z"/>
<path d="M6550 1193 c0 -13 5 -23 10 -23 13 0 13 11 0 30 -8 12 -10 11 -10 -7z"/>
<path d="M6760 1200 c0 -5 7 -10 15 -10 8 0 15 5 15 10 0 6 -7 10 -15 10 -8 0
-15 -4 -15 -10z"/>
<path d="M6766 1155 c-3 -9 0 -15 9 -15 8 0 15 7 15 15 0 8 -4 15 -9 15 -5 0
-11 -7 -15 -15z"/>
<path d="M6770 1122 c0 -7 5 -12 10 -12 6 0 10 -9 10 -19 0 -11 5 -23 10 -26
19 -12 10 32 -10 50 -11 10 -20 13 -20 7z"/>
<path d="M3005 1110 c-3 -5 -1 -10 4 -10 6 0 11 5 11 10 0 6 -2 10 -4 10 -3 0
-8 -4 -11 -10z"/>
<path d="M6594 1100 c3 -14 6 -35 6 -48 0 -13 4 -20 10 -17 15 9 12 49 -6 71
-15 18 -15 18 -10 -6z"/>
<path d="M6713 1078 c-12 -19 -33 -60 -33 -64 0 -2 7 -4 16 -4 22 0 43 29 44
58 0 24 -14 29 -27 10z"/>
<path d="M3017 1046 c-4 -10 -5 -21 -2 -24 9 -9 17 6 13 25 -3 17 -4 17 -11
-1z"/>
<path d="M2950 1020 c-8 -5 -11 -12 -7 -17 5 -4 11 -2 15 4 4 6 16 13 27 16
l20 5 -20 1 c-11 0 -27 -3 -35 -9z"/>
<path d="M2991 977 c-19 -11 -32 -17 -29 -11 4 5 -23 10 -66 11 l-71 2 45 -24
c25 -12 45 -27 45 -31 0 -5 4 -15 9 -22 15 -24 -4 -26 -35 -3 -17 13 -33 20
-36 18 -3 -3 -16 6 -29 21 -16 18 -23 22 -24 12 0 -34 13 -60 31 -60 37 0 79
-74 60 -107 -7 -14 -22 -6 -37 21 -21 38 -29 25 -30 -46 -1 -50 1 -61 5 -34 5
33 8 37 18 24 10 -12 10 -23 2 -48 -9 -25 -9 -34 1 -40 8 -5 9 -13 4 -21 -6
-12 -5 -12 8 -1 8 7 22 10 31 6 10 -3 20 2 27 16 9 17 8 25 -5 40 -9 9 -17 30
-18 46 -2 26 1 29 30 29 37 0 35 -2 62 52 24 47 27 78 8 70 -6 -2 -20 6 -30
19 -18 24 -18 24 7 24 27 0 56 23 56 46 0 8 -1 14 -2 13 -2 0 -18 -10 -37 -22z"/>
<path d="M6663 992 c-16 -5 -20 -11 -14 -21 5 -8 7 -21 4 -28 -4 -11 -8 -12
-13 -3 -5 9 -9 9 -14 1 -4 -6 7 -24 24 -40 28 -25 31 -33 25 -62 l-6 -34 20
33 c32 50 44 41 53 -38 3 -24 4 -23 20 10 29 63 -7 182 -58 187 -10 1 -29 -2
-41 -5z"/>
<path d="M6604 878 c2 -18 0 -41 -5 -50 -11 -20 -2 -48 16 -48 16 0 45 44 45
69 0 11 -13 29 -30 41 l-30 21 4 -33z"/>
<path d="M3227 893 c-11 -10 -8 -53 3 -53 6 0 10 14 10 30 0 31 -2 35 -13 23z"/>
<path d="M3259 883 c6 -12 23 -30 37 -40 14 -10 40 -29 57 -43 25 -19 29 -21
18 -5 -28 38 -65 75 -75 75 -5 0 -18 8 -29 18 -19 16 -20 16 -8 -5z"/>
<path d="M3030 807 c0 -60 18 -106 52 -138 24 -21 29 -33 26 -60 -2 -26 -8
-35 -24 -37 -31 -4 -48 23 -50 86 -2 32 -7 79 -13 107 -5 27 -7 53 -5 57 3 5
2 8 -1 8 -11 0 -36 -71 -29 -82 4 -6 10 -26 14 -44 6 -26 5 -34 -6 -34 -8 0
-14 -5 -14 -11 0 -8 -4 -8 -14 0 -20 17 -39 -19 -30 -56 7 -25 6 -27 -9 -14
-15 11 -17 11 -17 -1 0 -42 24 -80 63 -99 30 -16 37 -23 26 -30 -8 -5 -9 -9
-3 -9 16 0 54 -39 54 -57 0 -14 -3 -14 -25 1 -22 14 -25 15 -25 1 0 -21 -13
-19 -28 5 -7 12 -17 18 -22 15 -6 -4 -14 4 -19 17 l-10 23 0 -23 c-1 -28 38
-69 74 -78 15 -4 24 -12 21 -19 -2 -7 9 -22 26 -35 28 -21 29 -21 19 -2 -6 12
-11 29 -11 39 1 16 3 15 20 -6 11 -13 20 -18 20 -12 0 7 5 9 10 6 6 -3 10 -17
10 -31 0 -14 6 -24 14 -24 15 0 25 -29 27 -75 0 -28 1 -29 11 -8 16 34 2 83
-41 140 -22 28 -37 53 -34 56 2 3 -5 23 -16 46 -12 22 -21 46 -21 52 0 27 55
-40 86 -106 l34 -70 -6 45 c-3 25 -19 71 -35 103 -34 67 -37 93 -8 57 19 -23
20 -24 9 -2 -6 13 -9 31 -7 40 3 12 8 8 17 -15 6 -18 16 -30 21 -27 17 10 26
-38 22 -115 l-3 -76 17 42 c19 45 33 63 33 45 0 -7 7 -12 15 -12 23 0 18 -38
-6 -51 -14 -7 -18 -14 -11 -21 7 -7 3 -17 -13 -32 -29 -26 -49 -120 -21 -97
22 18 27 11 20 -27 -4 -18 -14 -32 -25 -35 -22 -6 -26 -27 -5 -27 8 0 29 17
46 37 28 34 31 44 28 92 -2 42 1 56 14 64 13 9 22 7 41 -11 15 -14 30 -20 40
-16 10 3 17 1 17 -5 0 -7 8 -14 18 -18 9 -3 24 -12 34 -20 13 -12 23 -12 60
-2 54 16 54 15 37 36 -11 14 -11 15 0 9 10 -7 12 -3 6 15 -4 13 -14 31 -21 40
-16 18 -19 49 -4 49 6 0 10 -4 10 -10 0 -5 5 -10 10 -10 17 0 10 45 -21 128
-7 18 -5 22 11 22 16 0 20 -7 20 -32 0 -24 3 -29 11 -21 18 18 -2 87 -27 91
-15 2 -25 -8 -42 -43 -19 -39 -19 -45 -6 -45 12 0 14 -5 9 -17 -5 -10 -13 -39
-18 -65 -10 -43 -9 -50 10 -70 l21 -23 -59 -3 c-37 -1 -59 2 -59 9 0 6 -9 8
-20 4 -23 -7 -25 -2 -10 26 7 12 21 19 39 19 38 0 42 6 25 45 -15 38 -20 100
-5 77 6 -10 10 -6 15 14 6 21 10 24 16 14 6 -10 12 -5 23 21 12 29 12 38 0 62
-14 28 -6 36 15 15 9 -9 12 -8 12 5 0 28 -49 67 -92 73 -23 4 -38 12 -38 21 0
10 -4 11 -19 3 -11 -5 -32 -10 -47 -10 -27 0 -27 -1 -8 -15 17 -14 14 -14 -21
0 -22 9 -51 23 -63 31 -38 25 -35 11 7 -33 25 -25 54 -44 77 -50 41 -9 62 -35
22 -27 -20 5 -20 3 5 -11 20 -11 26 -22 22 -34 -3 -10 -1 -29 4 -42 9 -23 10
-23 10 7 1 19 7 34 16 38 12 4 15 -6 15 -61 0 -50 5 -74 22 -102 17 -27 18
-33 5 -22 -9 7 -26 11 -38 8 -12 -3 -22 0 -26 9 -3 8 -11 14 -19 14 -8 0 -14
5 -14 10 0 6 7 10 15 10 24 0 17 18 -15 37 -17 10 -28 23 -26 29 2 6 -1 17 -7
23 -17 17 0 13 31 -6 l27 -18 -23 33 c-13 17 -28 32 -33 32 -5 0 -25 25 -45
56 -37 58 -52 66 -34 20 5 -15 10 -35 10 -44 0 -15 -2 -15 -10 -2 -8 13 -10
12 -10 -3 0 -29 -17 -10 -23 25 -13 80 -30 145 -44 172 -16 30 -16 30 -24 8
-9 -24 -29 -21 -29 4 0 8 -5 14 -11 14 -7 0 -8 11 -4 29 3 17 2 32 -4 36 -7 4
-11 -9 -11 -38z"/>
<path d="M6824 839 c-3 -6 -1 -16 4 -21 8 -8 11 -5 9 11 -1 24 -3 25 -13 10z"/>
<path d="M6834 784 c3 -9 6 -20 6 -25 0 -5 5 -9 10 -9 7 0 7 6 1 19 -6 10 -7
21 -4 25 3 3 1 6 -6 6 -8 0 -11 -6 -7 -16z"/>
<path d="M6651 781 c-23 -15 -5 -44 21 -35 32 9 32 11 15 29 -18 17 -18 17
-36 6z"/>
<path d="M6592 751 c16 -25 31 -27 26 -4 -2 10 -11 19 -21 21 -16 3 -17 1 -5
-17z"/>
<path d="M2807 631 c-3 -12 -1 -21 3 -21 15 0 23 21 12 32 -6 6 -11 2 -15 -11z"/>
<path d="M2874 584 c3 -27 8 -79 12 -117 3 -37 10 -70 15 -73 12 -7 11 15 -5
121 -8 50 -12 93 -10 97 3 4 -1 10 -7 14 -8 5 -10 -7 -5 -42z"/>
<path d="M6872 600 c0 -14 2 -19 5 -12 2 6 2 18 0 25 -3 6 -5 1 -5 -13z"/>
<path d="M2816 581 c-11 -12 -16 -24 -12 -28 9 -9 39 22 34 37 -2 7 -10 4 -22
-9z"/>
<path d="M6902 470 c0 -14 2 -19 5 -12 2 6 2 18 0 25 -3 6 -5 1 -5 -13z"/>
<path d="M6842 434 c-7 -8 -25 -14 -40 -14 -46 0 -59 -17 -19 -24 38 -7 87 10
87 30 0 20 -14 23 -28 8z"/>
<path d="M3554 382 c-6 -4 -14 -18 -18 -32 l-7 -25 17 23 c9 12 23 22 30 22 8
0 14 5 14 10 0 12 -20 13 -36 2z"/>
<path d="M6783 357 c2 -21 7 -27 25 -27 12 0 22 5 22 10 0 6 -5 10 -11 10 -7
0 -18 8 -24 17 -12 16 -13 15 -12 -10z"/>
<path d="M6840 370 c-9 -6 -10 -10 -3 -10 6 0 15 5 18 10 8 12 4 12 -15 0z"/>
<path d="M6880 343 c0 -12 5 -25 11 -28 19 -12 22 3 5 27 l-16 22 0 -21z"/>
<path d="M2930 316 c0 -38 23 -87 54 -115 14 -14 26 -29 26 -34 0 -6 -9 -2
-20 8 -22 20 -27 7 -9 -27 13 -24 1 -40 -12 -16 -15 27 -40 12 -29 -17 5 -14
5 -37 -1 -57 -11 -40 -11 -38 1 -38 5 0 13 15 18 33 5 17 14 31 21 30 6 -2 11
3 11 11 0 16 18 31 26 23 3 -3 1 -15 -6 -26 -17 -32 13 -27 40 7 12 15 19 19
16 10 -3 -10 -1 -18 4 -18 6 0 11 10 11 23 1 16 2 18 6 4 2 -9 9 -17 14 -17 6
0 7 -4 4 -10 -3 -5 -2 -10 4 -10 19 0 31 36 22 68 -11 36 -61 102 -77 102 -6
0 -17 7 -24 15 -16 20 -34 19 -26 -1 9 -25 -13 -6 -45 38 -28 40 -29 40 -29
14z"/>
<path d="M6840 249 c0 -11 5 -17 10 -14 6 3 10 13 10 21 0 8 -4 14 -10 14 -5
0 -10 -9 -10 -21z"/>
<path d="M6882 240 c0 -14 2 -19 5 -12 2 6 2 18 0 25 -3 6 -5 1 -5 -13z"/>
<path d="M3532 224 c-28 -19 -55 -71 -48 -90 8 -21 40 -17 63 9 26 28 57 77
52 81 -15 13 -48 14 -67 0z"/>
<path d="M3459 203 c-9 -2 -24 -22 -34 -43 -10 -22 -22 -40 -27 -40 -12 0 1
-92 15 -105 7 -7 8 -4 4 8 -4 9 -2 17 3 17 5 0 12 -9 15 -20 3 -11 11 -20 16
-20 14 0 11 34 -8 70 -16 33 -16 34 5 48 12 8 22 23 22 34 0 11 5 28 10 39 11
19 9 20 -21 12z"/>
<path d="M3622 136 c3 -64 7 -77 28 -95 14 -11 30 -20 37 -21 6 0 14 -6 16
-12 4 -10 8 -9 16 2 17 24 13 59 -11 101 l-22 39 -11 -27 -11 -28 -16 32 c-9
17 -13 43 -11 57 4 17 1 26 -7 26 -9 0 -11 -20 -8 -74z"/>
<path d="M3315 191 c-3 -6 -14 -11 -23 -11 -14 -1 -66 -61 -80 -92 -2 -5 17
-8 42 -8 25 0 46 3 46 8 0 4 12 15 26 25 20 15 28 16 39 7 22 -18 18 -6 -11
37 -32 47 -31 46 -39 34z"/>
<path d="M3575 157 c-25 -35 -29 -50 -27 -89 3 -41 1 -48 -15 -48 -15 0 -16
-2 -3 -10 8 -5 29 -10 46 -10 28 0 32 4 36 32 2 18 2 63 -1 100 l-6 67 -30
-42z"/>
<path d="M6301 186 c-11 -13 -11 -17 3 -22 21 -8 25 -4 17 19 -6 17 -8 17 -20
3z"/>
<path d="M6920 165 c0 -14 4 -25 9 -25 4 0 6 11 3 25 -2 14 -6 25 -8 25 -2 0
-4 -11 -4 -25z"/>
<path d="M7986 124 c-4 -15 -2 -32 3 -37 8 -8 11 0 11 26 0 44 -5 47 -14 11z"/>
<path d="M6620 130 c0 -5 7 -10 16 -10 8 0 12 5 9 10 -3 6 -10 10 -16 10 -5 0
-9 -4 -9 -10z"/>
<path d="M6844 102 c1 -20 5 -42 9 -48 7 -12 -16 -37 -43 -47 -8 -3 -3 -5 12
-4 16 1 29 8 31 19 3 10 16 22 30 27 14 5 28 14 31 20 10 15 -15 50 -31 44 -7
-3 -16 2 -19 11 -11 29 -22 17 -20 -22z m56 -17 c7 -9 8 -15 2 -15 -5 0 -12 7
-16 15 -3 8 -4 15 -2 15 2 0 9 -7 16 -15z"/>
<path d="M3145 99 c-4 -6 -5 -12 -2 -15 2 -3 7 2 10 11 7 17 1 20 -8 4z"/>
<path d="M2280 95 c-1 -5 -3 -29 -6 -52 -3 -37 -1 -43 14 -43 24 0 28 58 7 86
-8 10 -15 15 -15 9z"/>
<path d="M6497 83 c-17 -4 -47 -51 -47 -73 0 -16 76 -12 90 5 10 13 9 15 -8
15 -12 0 -24 5 -27 10 -3 6 1 10 9 10 9 0 16 5 16 11 0 5 9 9 20 7 10 -2 20 2
22 7 3 11 -46 16 -75 8z"/>
<path d="M6700 73 c0 -6 -12 -9 -27 -6 -27 3 -28 3 -5 -8 17 -9 25 -10 34 -1
6 6 9 15 5 19 -4 3 -7 2 -7 -4z"/>
<path d="M3130 61 c0 -5 7 -14 15 -21 8 -7 15 -19 15 -26 0 -11 20 -14 91 -14
l90 0 -27 35 c-26 35 -27 35 -105 35 -44 0 -79 -4 -79 -9z"/>
<path d="M6935 40 c21 -24 26 -25 19 -6 -3 8 -13 17 -22 21 -13 5 -13 2 3 -15z"/>
<path d="M3052 38 c-13 -13 1 -38 21 -38 6 0 2 6 -9 14 -16 12 -16 15 -4 19 8
3 22 8 30 10 10 4 8 6 -5 6 -12 1 -26 -4 -33 -11z"/>
<path d="M3760 44 c0 -14 27 -50 33 -44 3 3 -3 16 -13 30 -11 14 -20 20 -20
14z"/>
<path d="M6601 31 c-16 -29 -14 -31 27 -30 24 1 29 3 14 6 -15 3 -22 10 -18
18 8 23 -12 28 -23 6z"/>
<path d="M2945 10 c-4 -6 8 -10 30 -10 22 0 34 4 30 10 -8 13 -52 13 -60 0z"/>
<path d="M3115 10 c-18 -8 -17 -9 8 -9 16 -1 26 3 22 9 -3 6 -7 10 -8 9 -1 0
-11 -4 -22 -9z"/>
</g>
</svg>
